<svg width="388" height="196" viewBox="0 0 388 196" fill="none" xmlns="http://www.w3.org/2000/svg">
<g clip-path="url(#clip0_23:384)">
<path d="M307.419 195.297L307.368 195.292L227.392 187.862L154.666 194.619C152.767 194.795 150.876 194.21 149.409 192.992C147.942 191.774 147.018 190.022 146.842 188.123C146.821 187.902 146.811 187.68 146.811 187.458V14.4648C146.804 12.6706 147.47 10.939 148.679 9.61284C149.887 8.28672 151.549 7.46277 153.336 7.30414L227.392 0.423431L227.443 0.428291L307.419 7.85897L380.145 1.10197C382.043 0.925538 383.934 1.51078 385.402 2.72894C386.869 3.9471 387.793 5.69839 387.969 7.59756C387.99 7.81866 388 8.04036 388 8.26266V181.256C388.007 183.05 387.341 184.782 386.132 186.108C384.924 187.434 383.262 188.258 381.475 188.417L307.419 195.297Z" fill="#3F3D56"/>
<path d="M258.296 64.4224C242.815 53.1454 226.526 42.452 209.886 32.6409L209.05 32.1486V65.4237H259.67L258.296 64.4224ZM210.157 64.3173V34.0876C225.986 43.4533 241.487 53.6156 256.269 64.3173L210.157 64.3173ZM336.646 132.806C329.95 125.844 323.082 119.041 316.04 112.396C314.099 110.562 312.145 108.743 310.18 106.939C298.186 95.9189 285.797 85.4385 273.014 75.4975L272.865 75.3813H209.05V133.744H337.547L336.646 132.806ZM210.157 132.638V76.4877H272.486C284.812 86.0774 296.804 96.2038 308.463 106.867C310.487 108.717 312.497 110.582 314.494 112.462C321.474 119.023 328.291 125.748 334.945 132.638H210.157ZM336.646 132.806C329.95 125.844 323.082 119.041 316.04 112.396C314.099 110.562 312.145 108.743 310.18 106.939C298.186 95.9189 285.797 85.4385 273.014 75.4975L272.865 75.3813H209.05V133.744H337.547L336.646 132.806ZM210.157 132.638V76.4877H272.486C284.812 86.0774 296.804 96.2038 308.463 106.867C310.487 108.717 312.497 110.582 314.494 112.462C321.474 119.023 328.291 125.748 334.945 132.638H210.157ZM258.296 64.4224C242.815 53.1454 226.526 42.452 209.886 32.6409L209.05 32.1486V65.4237H259.67L258.296 64.4224ZM210.157 64.3173V34.0876C225.986 43.4533 241.487 53.6156 256.269 64.3173L210.157 64.3173ZM258.296 64.4224C242.815 53.1454 226.526 42.452 209.886 32.6409L209.05 32.1486V65.4237H259.67L258.296 64.4224ZM210.157 64.3173V34.0876C225.986 43.4533 241.487 53.6156 256.269 64.3173L210.157 64.3173ZM336.646 132.806C329.95 125.844 323.082 119.041 316.04 112.396C314.099 110.562 312.145 108.743 310.18 106.939C298.186 95.9189 285.797 85.4385 273.014 75.4975L272.865 75.3813H209.05V133.744H337.547L336.646 132.806ZM210.157 132.638V76.4877H272.486C284.812 86.0774 296.804 96.2038 308.463 106.867C310.487 108.717 312.497 110.582 314.494 112.462C321.474 119.023 328.291 125.748 334.945 132.638H210.157ZM154.299 143.702V144.808H197.988V160.851H154.299V161.957H199.095V143.702H154.299ZM209.05 171.915V183.126L210.157 183.023V173.021H380.513V171.915L209.05 171.915ZM380.513 144.808V143.702H209.05V161.957H380.513V160.851H210.157V144.808L380.513 144.808ZM277.207 64.3172C255.984 47.9437 233.572 33.1738 210.157 20.1303V8.92798L209.05 9.03032V20.3194L209.902 21.2561C233.223 34.2641 255.544 48.9885 276.681 65.3075L276.83 65.4237H380.513V64.3173L277.207 64.3172ZM197.988 64.3172H154.299V65.4237H199.095V9.95416L197.988 10.0565L197.988 64.3172ZM380.513 75.3813H289.364L290.556 76.3605C301.778 85.5962 312.797 95.3915 323.612 105.747C325.15 107.218 326.682 108.702 328.208 110.197C335.808 117.624 343.259 125.293 350.562 133.205L351.474 133.744H380.512V132.638H351.544C344.32 124.804 336.94 117.198 329.403 109.818C327.896 108.341 326.383 106.874 324.865 105.417C314.284 95.2634 303.477 85.6201 292.444 76.4877H380.513V75.3813ZM154.299 171.915V173.021H197.988V184.152L199.095 184.049V171.915H154.299ZM154.299 75.3813V76.4877H197.988V132.638H154.299V133.744H199.095V75.3813H154.299ZM258.296 64.4224C242.815 53.1454 226.526 42.452 209.886 32.6409L209.05 32.1486V65.4237H259.67L258.296 64.4224ZM210.157 64.3173V34.0876C225.986 43.4533 241.487 53.6156 256.269 64.3173L210.157 64.3173ZM336.646 132.806C329.95 125.844 323.082 119.041 316.04 112.396C314.099 110.562 312.145 108.743 310.18 106.939C298.186 95.9189 285.797 85.4385 273.014 75.4975L272.865 75.3813H209.05V133.744H337.547L336.646 132.806ZM210.157 132.638V76.4877H272.486C284.812 86.0774 296.804 96.2038 308.463 106.867C310.487 108.717 312.497 110.582 314.494 112.462C321.474 119.023 328.291 125.748 334.945 132.638H210.157ZM258.296 64.4224C242.815 53.1454 226.526 42.452 209.886 32.6409L209.05 32.1486V65.4237H259.67L258.296 64.4224ZM210.157 64.3173V34.0876C225.986 43.4533 241.487 53.6156 256.269 64.3173L210.157 64.3173ZM336.646 132.806C329.95 125.844 323.082 119.041 316.04 112.396C314.099 110.562 312.145 108.743 310.18 106.939C298.186 95.9189 285.797 85.4385 273.014 75.4975L272.865 75.3813H209.05V133.744H337.547L336.646 132.806ZM210.157 132.638V76.4877H272.486C284.812 86.0774 296.804 96.2038 308.463 106.867C310.487 108.717 312.497 110.582 314.494 112.462C321.474 119.023 328.291 125.748 334.945 132.638H210.157Z" fill="white"/>
<path d="M270.342 73.2317C270.342 87.2421 244.978 118.453 244.978 118.453C244.978 118.453 219.615 87.2421 219.615 73.2317C219.615 66.5037 222.287 60.0512 227.044 55.2937C231.8 50.5363 238.251 47.8636 244.978 47.8636C251.705 47.8636 258.156 50.5363 262.913 55.2937C267.67 60.0512 270.342 66.5037 270.342 73.2317V73.2317Z" fill="#1F2729"/>
<path d="M256.573 72.1288C256.573 74.4224 255.893 76.6645 254.619 78.5716C253.345 80.4787 251.534 81.9651 249.416 82.8429C247.297 83.7206 244.966 83.9502 242.717 83.5028C240.467 83.0553 238.401 81.9508 236.78 80.329C235.158 78.7071 234.054 76.6408 233.607 74.3912C233.159 72.1416 233.389 69.8099 234.266 67.6908C235.144 65.5718 236.63 63.7606 238.537 62.4863C240.444 61.212 242.685 60.5319 244.979 60.5319C246.501 60.5312 248.01 60.8307 249.417 61.4132C250.824 61.9958 252.102 62.85 253.179 63.927C254.256 65.004 255.11 66.2827 255.692 67.69C256.275 69.0973 256.574 70.6056 256.573 72.1288V72.1288Z" fill="white"/>
<path d="M244.978 136.762C248.754 136.762 251.815 133.701 251.815 129.924C251.815 126.147 248.754 123.086 244.978 123.086C241.202 123.086 238.141 126.147 238.141 129.924C238.141 133.701 241.202 136.762 244.978 136.762Z" fill="#1F2729"/>
<path d="M310.488 44.0777C316.07 44.0777 320.596 39.5511 320.596 33.9672C320.596 28.3833 316.07 23.8567 310.488 23.8567C304.905 23.8567 300.379 28.3833 300.379 33.9672C300.379 39.5511 304.905 44.0777 310.488 44.0777Z" fill="#FF6584"/>
<path d="M342.187 65.1241H292.597C292.535 65.1249 292.473 65.12 292.412 65.1094L315.866 24.4766C316.009 24.2235 316.216 24.013 316.468 23.8666C316.719 23.7201 317.004 23.6429 317.295 23.6429C317.586 23.6429 317.871 23.7201 318.122 23.8666C318.373 24.013 318.581 24.2235 318.724 24.4766L334.465 51.7444L335.219 53.0491L342.187 65.1241Z" fill="white"/>
<path opacity="0.2" d="M342.187 65.1241H325.256L333.568 53.049L334.166 52.1792L334.465 51.7443L335.219 53.049L342.187 65.1241Z" fill="black"/>
<path d="M369.799 65.1241H326.907L335.219 53.0491L335.817 52.1793L346.648 36.4433C347.358 35.4119 349.066 35.3477 349.901 36.2488C349.957 36.3102 350.009 36.3752 350.057 36.4433L369.799 65.1241Z" fill="white"/>
<path d="M372.982 122.403C375.807 122.403 378.098 120.112 378.098 117.286C378.098 114.459 375.807 112.168 372.982 112.168C370.156 112.168 367.865 114.459 367.865 117.286C367.865 120.112 370.156 122.403 372.982 122.403Z" fill="white"/>
<path d="M373.475 132.699H372.427L372.905 116.515L373.475 132.699Z" fill="#CBCBCB"/>
<path d="M372.997 119.582L374.122 118.025L372.982 119.968L372.858 119.752L372.997 119.582Z" fill="#CBCBCB"/>
<path d="M372.874 121.154L371.749 119.598L372.889 121.539L373.012 121.324L372.874 121.154Z" fill="#CBCBCB"/>
<path d="M358.434 117.492C362.607 117.492 365.99 114.109 365.99 109.935C365.99 105.761 362.607 102.377 358.434 102.377C354.261 102.377 350.878 105.761 350.878 109.935C350.878 114.109 354.261 117.492 358.434 117.492Z" fill="white"/>
<path d="M359.162 132.699H357.615L358.32 108.797L359.162 132.699Z" fill="#CBCBCB"/>
<path d="M358.457 113.326L360.118 111.028L358.434 113.896L358.252 113.577L358.457 113.326Z" fill="#CBCBCB"/>
<path d="M358.275 115.648L356.613 113.35L358.298 116.217L358.48 115.899L358.275 115.648Z" fill="#CBCBCB"/>
<path d="M183.004 122.403C185.829 122.403 188.12 120.112 188.12 117.286C188.12 114.459 185.829 112.168 183.004 112.168C180.178 112.168 177.887 114.459 177.887 117.286C177.887 120.112 180.178 122.403 183.004 122.403Z" fill="white"/>
<path d="M183.497 132.699H182.449L182.927 116.515L183.497 132.699Z" fill="#CBCBCB"/>
<path d="M183.019 119.582L184.144 118.025L183.004 119.968L182.881 119.752L183.019 119.582Z" fill="#CBCBCB"/>
<path d="M182.896 121.154L181.771 119.598L182.911 121.539L183.034 121.324L182.896 121.154Z" fill="#CBCBCB"/>
<path d="M168.456 117.492C172.629 117.492 176.012 114.109 176.012 109.935C176.012 105.761 172.629 102.377 168.456 102.377C164.283 102.377 160.9 105.761 160.9 109.935C160.9 114.109 164.283 117.492 168.456 117.492Z" fill="white"/>
<path d="M169.184 132.699H167.637L168.343 108.797L169.184 132.699Z" fill="#CBCBCB"/>
<path d="M168.479 113.326L170.14 111.028L168.456 113.896L168.274 113.577L168.479 113.326Z" fill="#CBCBCB"/>
<path d="M168.297 115.648L166.635 113.35L168.32 116.217L168.502 115.899L168.297 115.648Z" fill="#CBCBCB"/>
</g>
<g clip-path="url(#clip1_23:384)">
<path d="M174.303 194.219C169.142 193.139 165.92 186.683 168.161 181.913C170.608 176.706 177.227 175.199 181.577 171.431C187.639 166.18 188.616 157.07 187.346 149.154C186.075 141.239 183.017 133.611 182.636 125.603C182.406 120.784 183.746 115.12 188.172 113.196C190.855 112.03 194.056 112.619 196.578 114.1C199.101 115.581 201.055 117.85 202.829 120.176C213.14 133.778 218.765 150.352 218.859 167.417C218.873 172.526 218.341 177.79 215.961 182.312C212.231 189.4 204.419 193.608 196.525 194.98C188.63 196.353 180.539 195.296 172.596 194.237" fill="#F0F0F0"/>
<path d="M104.285 70.8236C104.133 70.9794 103.994 71.1469 103.869 71.3246L84.3811 70.8481L82.1077 66.6966L75.3897 69.3064L78.6996 77.0468C78.967 77.6721 79.4302 78.1938 80.0196 78.5337C80.6089 78.8736 81.2927 79.0132 81.9683 78.9317L103.986 76.2737C104.505 76.9307 105.212 77.4142 106.013 77.6598C106.814 77.9054 107.671 77.9014 108.47 77.6485C109.269 77.3955 109.971 76.9056 110.485 76.2438C110.998 75.5819 111.297 74.7797 111.343 73.9436C111.389 73.1075 111.179 72.2773 110.741 71.5634C110.304 70.8495 109.659 70.2857 108.892 69.947C108.126 69.6083 107.275 69.5107 106.452 69.6673C105.629 69.8239 104.873 70.2272 104.285 70.8236V70.8236Z" fill="#FFB7B7"/>
<path d="M40.7582 189.095H47.1658L50.2141 164.396L40.7571 164.396L40.7582 189.095Z" fill="#FFB7B7"/>
<path d="M39.1237 187.004L51.7426 187.004H51.7432C53.8759 187.004 55.9213 187.851 57.4294 189.358C58.9375 190.865 59.7848 192.909 59.785 195.04V195.301L39.1241 195.302L39.1237 187.004Z" fill="#2F2E41"/>
<path d="M98.9419 188.952L104.834 186.437L97.9286 162.527L89.2323 166.24L98.9419 188.952Z" fill="#FFB7B7"/>
<path d="M96.6168 187.671L108.221 182.717L108.222 182.717C110.183 181.88 112.397 181.856 114.376 182.649C116.355 183.443 117.938 184.99 118.776 186.95L118.879 187.19L99.8789 195.302L96.6168 187.671Z" fill="#2F2E41"/>
<path d="M71.9038 76.174L72.367 83.6775L58.8232 85.1261L44.6511 86.6416L48.8223 75.2478L71.9038 76.174Z" fill="#FFB7B7"/>
<path d="M72.3794 78.8663C72.2259 78.8061 56.928 72.8594 47.5314 77.7219L47.3003 77.8416L45.4257 68.6208L44.3576 48.7966L51.3081 45.5146L53.2218 41.2307L66.2567 40.4599L68.9353 44.1309L78.0552 47.1178L72.6046 78.9553L72.3794 78.8663Z" fill="#E4E4E4"/>
<path d="M72.8585 60.9724L74.4708 48.3125L78.142 47.1959L78.2039 47.2187C78.2886 47.2498 80.2838 48.0129 80.8299 50.7733C81.3541 53.4228 85.3023 69.9106 85.3421 70.0769L85.3816 70.2419L76.1052 73.9509L72.8585 60.9724Z" fill="#E4E4E4"/>
<path d="M94.1693 184.612L106.518 182.08L86.7815 127.657L80.0268 109.094C80.0268 109.094 75.7427 94.2107 73.8071 88.4509L72.639 80.7227L44.9872 83.7813C44.9872 83.7813 37.2641 95.1158 39.6104 113.59L38.5492 183.03L50.8975 183.662L61.2405 113.63L79.3936 152.021C79.3936 152.021 85.1153 168.404 89.2089 171.955L94.1693 184.612Z" fill="#2F2E41"/>
<path d="M56.0762 86.3587C55.8588 86.3535 55.6413 86.3655 55.4257 86.3945L42.5256 71.7898L44.0262 67.3012L37.5435 64.1526L34.1142 71.8409C33.8372 72.462 33.7693 73.1562 33.9206 73.8192C34.0719 74.4821 34.4344 75.0782 34.9535 75.5178L51.8737 89.8451C51.7447 90.6724 51.8707 91.5194 52.2352 92.2734C52.5996 93.0274 53.1851 93.6526 53.9137 94.0659C54.6424 94.4793 55.4797 94.6611 56.3143 94.5873C57.149 94.5134 57.9413 94.1874 58.586 93.6526C59.2306 93.1177 59.6971 92.3995 59.9233 91.5932C60.1495 90.787 60.1247 89.9311 59.8523 89.1393C59.5798 88.3474 59.0726 87.6573 58.3981 87.1606C57.7236 86.6639 56.9137 86.3842 56.0762 86.3587V86.3587Z" fill="#FFB7B7"/>
<path d="M36.3756 66.3164L41.4188 51.9609C41.9856 50.2687 42.6958 49.2407 43.5298 48.9052C43.6941 48.8313 43.8719 48.7923 44.052 48.7906C44.2322 48.789 44.4107 48.8246 44.5764 48.8954L46.8377 51.7505L48.9365 60.5616L43.5553 73.2112L36.3756 66.3164Z" fill="#E4E4E4"/>
<path d="M69.7566 37.4892H47.6171C47.1617 37.4887 46.7251 37.3077 46.4031 36.9859C46.0811 36.6641 45.8999 36.2278 45.8994 35.7727V26.2361C45.8994 22.8469 47.2466 19.5965 49.6448 17.2C52.0429 14.8034 55.2954 13.4571 58.6869 13.4571C62.0783 13.4571 65.3309 14.8034 67.729 17.2C70.1271 19.5965 71.4744 22.8469 71.4744 26.2361V26.2361V35.7726C71.4739 36.2277 71.2927 36.6641 70.9707 36.9859C70.6487 37.3077 70.2121 37.4887 69.7566 37.4892Z" fill="#2F2E41"/>
<path d="M61.3146 37.2672C66.4924 37.2672 70.6899 33.0725 70.6899 27.8981C70.6899 22.7237 66.4924 18.529 61.3146 18.529C56.1367 18.529 51.9392 22.7237 51.9392 27.8981C51.9392 33.0725 56.1367 37.2672 61.3146 37.2672Z" fill="#FFB7B7"/>
<path d="M74.4996 27.1898H60.9618L60.823 25.2474L60.1289 27.1898H58.0443L57.7693 23.3401L56.3935 27.1898H52.3601V26.999C52.3631 24.319 53.4298 21.7495 55.3261 19.8544C57.2225 17.9593 59.7936 16.8933 62.4754 16.8903H64.3841C67.066 16.8933 69.6371 17.9593 71.5335 19.8544C73.4299 21.7495 74.4966 24.3189 74.4996 26.999L74.4996 27.1898Z" fill="#2F2E41"/>
<path d="M60.851 39.2694C60.7491 39.2693 60.6474 39.2603 60.547 39.2426L50.634 37.4947V21.1224H61.5463L61.2762 21.4372C57.5174 25.818 60.3492 32.9216 62.3717 36.7661C62.5208 37.0476 62.5873 37.3656 62.5635 37.6832C62.5397 38.0009 62.4267 38.3054 62.2373 38.5616C62.0787 38.7808 61.8704 38.9592 61.6294 39.0822C61.3884 39.2053 61.1217 39.2694 60.851 39.2694V39.2694Z" fill="#2F2E41"/>
<path d="M126.02 104.239C126.482 103.928 126.871 103.519 127.158 103.041C127.445 102.563 127.625 102.028 127.683 101.474C127.741 100.92 127.677 100.359 127.495 99.8324C127.312 99.3056 127.017 98.825 126.629 98.4245L132.739 86.3294L125.741 87.1406L121.011 98.502C120.381 99.198 120.029 100.101 120.02 101.039C120.012 101.978 120.348 102.886 120.965 103.594C121.583 104.301 122.438 104.757 123.37 104.876C124.301 104.995 125.244 104.768 126.019 104.239L126.02 104.239Z" fill="#FFB7B7"/>
<path d="M175.023 189.915L169.516 189.915L166.896 168.689L175.024 168.689L175.023 189.915Z" fill="#FFB7B7"/>
<path d="M176.427 195.249L158.671 195.249V195.024C158.671 193.193 159.4 191.436 160.696 190.141C161.992 188.846 163.749 188.118 165.582 188.118H165.583L176.427 188.118L176.427 195.249Z" fill="#2F2E41"/>
<path d="M144.929 189.915L139.422 189.915L136.802 168.689L144.93 168.689L144.929 189.915Z" fill="#FFB7B7"/>
<path d="M144.986 195.249L127.23 195.249V195.024C127.23 193.193 127.958 191.436 129.254 190.141C130.55 188.846 132.308 188.118 134.141 188.118H134.141L144.986 188.118L144.986 195.249Z" fill="#2F2E41"/>
<path d="M144.477 100.266L139.087 112.675L134.642 184L145.87 183.552L148.937 149.551L158.398 119.268L163.837 153.028L166.083 182.654L175.375 183.056L179.077 100.266H144.477Z" fill="#2F2E41"/>
<path d="M171.42 39.034L155.798 39.4245L146.627 44.1298L146.123 78.844L140.403 102.811C140.403 102.811 176.144 105.269 181.084 101.679L175.245 74.2977L183.077 44.7068L171.42 39.034Z" fill="#1F2729"/>
<path d="M149.039 44.7052L147.585 43.7237C147.585 43.7237 141.56 45.5283 139.779 53.5567C139.779 53.5567 138.416 57.5846 137.819 60.3539C137.133 63.5302 121.989 92.7065 121.989 92.7065L131.056 95.3059L147.678 68.4418L149.039 44.7052Z" fill="#1F2729"/>
<path d="M182.832 108.691C182.473 108.264 182.213 107.763 182.068 107.225C181.924 106.687 181.899 106.123 181.996 105.574C182.094 105.025 182.31 104.505 182.63 104.048C182.951 103.592 183.367 103.211 183.851 102.933L181.315 89.6234L187.818 92.3318L189.229 104.556C189.643 105.399 189.733 106.364 189.482 107.268C189.231 108.172 188.657 108.953 187.868 109.463C187.08 109.973 186.132 110.175 185.203 110.033C184.275 109.891 183.431 109.413 182.832 108.69V108.691Z" fill="#FFB7B7"/>
<path d="M180.726 45.1213L182.395 44.5786C182.395 44.5786 187.688 47.9736 187.185 56.1814C187.185 56.1814 187.383 60.4287 187.194 63.2554C186.976 66.4976 189.889 98.7158 189.889 98.7158H180.456L176.414 69.5395L180.726 45.1213Z" fill="#1F2729"/>
<path d="M175.255 24.4699C175.255 26.6103 174.62 28.7027 173.43 30.4824C172.24 32.2621 170.549 33.6492 168.57 34.4683C166.591 35.2874 164.414 35.5017 162.313 35.0841C160.212 34.6666 158.283 33.6359 156.768 32.1223C155.254 30.6088 154.222 28.6805 153.805 26.5812C153.387 24.4819 153.601 22.3059 154.421 20.3285C155.24 18.351 156.628 16.6608 158.409 15.4716C160.19 14.2825 162.284 13.6477 164.426 13.6477C167.291 13.6406 170.041 14.7711 172.072 16.7905C174.103 18.81 175.248 21.5529 175.255 24.416C175.255 24.434 175.255 24.4519 175.255 24.4699Z" fill="#FFB7B7"/>
<path d="M153.632 9.93377C154.901 7.20766 157.356 7.74664 159.503 8.67072C162.222 8.06802 164.808 6.26362 167.737 7.33074C170.623 11.525 180.312 10.291 178.25 17.1193C178.248 18.7555 181.331 17.8031 180.793 20.4828C182.426 25.6399 174.897 35.4067 170.574 33.35C171.643 31.392 174.085 26.9448 170.381 26.5037C162.414 33.9125 169.559 12.3957 159.548 18.6531C156.233 21.6847 151.695 12.9661 153.632 9.93377Z" fill="#2F2E41"/>
<path d="M130.196 79.3104C129.58 79.3724 128.96 79.3869 128.341 79.3536C128.236 79.3421 128.13 79.3724 128.047 79.438C127.964 79.5037 127.909 79.5994 127.896 79.7045L126.713 88.5741C126.622 89.218 126.358 89.8252 125.949 90.3313C125.613 90.734 125.362 91.2017 125.214 91.7052C125.065 92.2087 125.022 92.7373 125.087 93.2582V108.325C125.087 108.325 125.011 110.334 126.555 110.334C128.404 110.566 130.274 110.566 132.123 110.334C132.123 110.334 133.359 110.1 133.359 108.246V93.4107C133.454 92.8932 133.434 92.3612 133.302 91.8519C133.171 91.3426 132.93 90.8679 132.596 90.461C132.201 89.953 131.946 89.3508 131.855 88.714L130.626 79.6587C130.612 79.5569 130.56 79.4642 130.48 79.3995C130.4 79.3348 130.299 79.3029 130.196 79.3104Z" fill="white"/>
<path d="M129.333 110.762C128.399 110.762 127.466 110.704 126.539 110.588C126.332 110.593 126.126 110.555 125.934 110.476C125.742 110.398 125.569 110.281 125.424 110.132C124.796 109.48 124.831 108.362 124.833 108.315L124.832 93.2736C124.767 92.7206 124.815 92.16 124.973 91.6261C125.132 91.0921 125.397 90.5961 125.754 90.1683C126.132 89.6986 126.377 89.1355 126.461 88.5386L127.644 79.6709C127.667 79.5003 127.755 79.3454 127.891 79.239C128.026 79.1326 128.198 79.083 128.369 79.1008C128.97 79.1325 129.572 79.118 130.171 79.0574L130.178 79.0567C130.345 79.0446 130.51 79.0965 130.641 79.202C130.771 79.3074 130.856 79.4583 130.879 79.6242L132.108 88.6799C132.192 89.2722 132.43 89.8323 132.797 90.3049C133.151 90.7367 133.407 91.2399 133.548 91.7798C133.689 92.3198 133.711 92.8838 133.614 93.4333V108.246C133.614 110.287 132.184 110.581 132.17 110.584C131.229 110.702 130.282 110.762 129.333 110.762V110.762ZM128.307 79.6064C128.269 79.6046 128.232 79.6169 128.203 79.641C128.173 79.665 128.154 79.6991 128.148 79.7365L126.965 88.6078C126.868 89.2978 126.585 89.9485 126.147 90.491C125.833 90.8676 125.599 91.3047 125.46 91.7752C125.321 92.2458 125.28 92.7398 125.339 93.2268L125.341 93.2581V108.325C125.341 108.344 125.314 109.286 125.792 109.781C125.891 109.881 126.01 109.96 126.142 110.011C126.273 110.063 126.414 110.086 126.555 110.079L126.587 110.081C128.414 110.311 130.263 110.311 132.091 110.081C132.115 110.076 133.105 109.85 133.105 108.246L133.109 93.3651C133.197 92.8838 133.179 92.3891 133.057 91.9154C132.934 91.4417 132.71 91.0004 132.399 90.6221C131.975 90.0779 131.701 89.4324 131.604 88.7497L130.374 79.6928C130.369 79.6557 130.35 79.6219 130.321 79.598C130.292 79.5742 130.255 79.562 130.217 79.5638C129.59 79.6266 128.958 79.6412 128.328 79.6075C128.321 79.6068 128.314 79.6064 128.307 79.6064V79.6064Z" fill="#3F3D56"/>
<path d="M128.329 93.5277H130.204C130.573 93.5277 130.939 93.6004 131.28 93.7416C131.621 93.8828 131.931 94.0898 132.192 94.3507C132.453 94.6116 132.66 94.9214 132.802 95.2623C132.943 95.6032 133.016 95.9686 133.016 96.3376V103.389C133.016 104.134 132.72 104.849 132.192 105.376C131.665 105.903 130.95 106.199 130.204 106.199H128.329C127.959 106.199 127.594 106.126 127.253 105.985C126.911 105.844 126.601 105.637 126.34 105.376C126.079 105.115 125.872 104.805 125.731 104.464C125.59 104.123 125.517 103.758 125.517 103.389V96.3376C125.517 95.5923 125.813 94.8776 126.34 94.3507C126.868 93.8237 127.583 93.5277 128.329 93.5277V93.5277Z" fill="#1F2729"/>
<path d="M104.976 53.4063C104.359 53.4685 103.737 53.483 103.117 53.4496C103.011 53.4381 102.905 53.4685 102.821 53.5343C102.738 53.6001 102.684 53.696 102.67 53.8015L101.484 62.6942C101.393 63.3397 101.128 63.9485 100.718 64.4559C100.381 64.8597 100.13 65.3286 99.981 65.8334C99.8322 66.3382 99.7888 66.8682 99.8536 67.3904V82.4964C99.8536 82.4964 99.7771 84.5105 101.326 84.5105C103.179 84.7433 105.054 84.7433 106.908 84.5105C106.908 84.5105 108.148 84.276 108.148 82.4174V67.5434C108.242 67.0245 108.223 66.4912 108.091 65.9805C107.958 65.4698 107.717 64.994 107.382 64.5859C106.986 64.0767 106.73 63.4729 106.64 62.8344L105.408 53.7556C105.394 53.6535 105.341 53.5606 105.261 53.4957C105.181 53.4308 105.079 53.3988 104.976 53.4063V53.4063Z" fill="white"/>
<path d="M104.111 84.9396C103.175 84.9396 102.239 84.8815 101.309 84.7654C101.102 84.7703 100.895 84.7323 100.703 84.6536C100.511 84.575 100.337 84.4574 100.192 84.3084C99.5618 83.6543 99.5969 82.5341 99.5987 82.4866L99.5985 67.406C99.5328 66.8515 99.5808 66.2894 99.7397 65.7541C99.8986 65.2188 100.165 64.7215 100.523 64.2925C100.902 63.8216 101.147 63.2571 101.231 62.6586L102.417 53.7677C102.44 53.5967 102.529 53.4414 102.665 53.3347C102.801 53.2281 102.973 53.1784 103.144 53.1962C103.747 53.228 104.351 53.2134 104.951 53.1526L104.958 53.152C105.126 53.1399 105.291 53.1919 105.422 53.2976C105.552 53.4033 105.638 53.5547 105.66 53.7209L106.893 62.8003C106.977 63.3941 107.216 63.9556 107.584 64.4294C107.938 64.8624 108.195 65.3669 108.336 65.9083C108.478 66.4496 108.5 67.0151 108.403 67.5661V82.4173C108.403 84.4634 106.97 84.7583 106.955 84.7611C106.012 84.8799 105.062 84.9395 104.111 84.9396V84.9396ZM103.082 53.7031C103.044 53.7013 103.007 53.7137 102.977 53.7378C102.948 53.7619 102.929 53.796 102.923 53.8336L101.737 62.7279C101.639 63.4197 101.356 64.0722 100.917 64.6161C100.602 64.9937 100.367 65.4319 100.228 65.9037C100.088 66.3755 100.047 66.8708 100.107 67.359L100.109 67.3904V82.4964C100.108 82.5152 100.081 83.4598 100.561 83.956C100.66 84.0569 100.779 84.1358 100.911 84.1874C101.043 84.239 101.184 84.2623 101.326 84.2556L101.358 84.2576C103.19 84.4874 105.044 84.4874 106.876 84.2576C106.9 84.2517 107.893 84.0255 107.893 82.4173L107.897 67.4977C107.985 67.0152 107.967 66.5192 107.844 66.0442C107.721 65.5693 107.496 65.1268 107.185 64.7475C106.76 64.2019 106.485 63.5548 106.387 62.8702L105.155 53.7898C105.149 53.7525 105.13 53.7186 105.101 53.6947C105.072 53.6708 105.035 53.6586 104.998 53.6604C104.368 53.7234 103.735 53.738 103.103 53.7043C103.096 53.7035 103.089 53.7031 103.082 53.7031Z" fill="#3F3D56"/>
<path d="M103.104 67.6607H104.984C105.354 67.6607 105.721 67.7336 106.063 67.8752C106.405 68.0167 106.716 68.2243 106.978 68.4859C107.239 68.7475 107.447 69.058 107.589 69.3998C107.73 69.7416 107.803 70.108 107.803 70.4779V77.5478C107.803 77.9177 107.73 78.2841 107.589 78.6259C107.447 78.9677 107.239 79.2782 106.978 79.5399C106.716 79.8015 106.405 80.009 106.063 80.1505C105.721 80.2921 105.354 80.365 104.984 80.365H103.104C102.734 80.365 102.367 80.2921 102.025 80.1506C101.683 80.009 101.372 79.8015 101.11 79.5399C100.849 79.2783 100.641 78.9677 100.499 78.6259C100.358 78.2841 100.285 77.9177 100.285 77.5478V70.4779C100.285 69.7308 100.582 69.0142 101.11 68.4858C101.639 67.9575 102.356 67.6607 103.104 67.6607V67.6607Z" fill="#1F2729"/>
<path d="M111.706 37.8507C115.29 37.8507 118.195 34.9475 118.195 31.3663C118.195 27.785 115.29 24.8818 111.706 24.8818C108.123 24.8818 105.218 27.785 105.218 31.3663C105.218 34.9475 108.123 37.8507 111.706 37.8507Z" fill="#F0F0F0"/>
<path d="M96.9265 116.744C100.51 116.744 103.415 113.841 103.415 110.26C103.415 106.679 100.51 103.776 96.9265 103.776C93.3429 103.776 90.4378 106.679 90.4378 110.26C90.4378 113.841 93.3429 116.744 96.9265 116.744Z" fill="#F0F0F0"/>
<path d="M125.044 145.204C128.628 145.204 131.533 142.301 131.533 138.719C131.533 135.138 128.628 132.235 125.044 132.235C121.461 132.235 118.556 135.138 118.556 138.719C118.556 142.301 121.461 145.204 125.044 145.204Z" fill="#F0F0F0"/>
<path d="M233.769 195.757H0.429224C0.315387 195.757 0.206208 195.712 0.125714 195.631C0.0452189 195.551 3.8147e-06 195.442 3.8147e-06 195.328C3.8147e-06 195.214 0.0452189 195.105 0.125714 195.025C0.206208 194.944 0.315387 194.899 0.429224 194.899H233.769C233.883 194.899 233.992 194.944 234.073 195.025C234.153 195.105 234.198 195.214 234.198 195.328C234.198 195.442 234.153 195.551 234.073 195.631C233.992 195.712 233.883 195.757 233.769 195.757V195.757Z" fill="#CACACA"/>
</g>
<defs>
<clipPath id="clip0_23:384">
<rect width="241.189" height="194.874" fill="white" transform="translate(146.811 0.423431)"/>
</clipPath>
<clipPath id="clip1_23:384">
<rect width="234.198" height="188.757" fill="white" transform="translate(0 7)"/>
</clipPath>
</defs>
</svg>