<svg width="595" height="358" viewBox="0 0 595 358" fill="none" xmlns="http://www.w3.org/2000/svg">
<g clip-path="url(#clip0_30:123)">
<path d="M31.0436 357.192C31.0038 357.016 27.1542 339.449 35.0161 324.859C42.8779 310.269 59.6597 303.835 59.8284 303.772L60.5953 303.484L60.7765 304.284C60.8163 304.459 64.6659 322.026 56.8041 336.616C48.9426 351.206 32.1604 357.64 31.9918 357.704L31.2244 357.992L31.0436 357.192ZM59.5435 305.436C56.182 306.883 42.9149 313.216 36.2749 325.538C29.6343 337.862 31.6378 352.436 32.2766 356.04C35.6368 354.596 48.8986 348.273 55.5452 335.937C62.1855 323.614 60.1827 309.042 59.5435 305.436V305.436Z" fill="#F1F1F1"/>
<path d="M50.7961 331.498C36.668 340.004 31.2267 356.9 31.2267 356.9C31.2267 356.9 48.6918 360.004 62.82 351.498C76.9481 342.992 82.3893 326.097 82.3893 326.097C82.3893 326.097 64.9243 322.992 50.7961 331.498Z" fill="#F1F1F1"/>
<path d="M264.749 195.14C264.965 194.027 264.934 192.881 264.658 191.781C264.383 190.682 263.87 189.656 263.156 188.776C262.441 187.896 261.543 187.184 260.524 186.689C259.505 186.195 258.389 185.93 257.257 185.913L250.714 169.448L239.746 170.986L249.312 194.108C249.41 196.014 250.203 197.818 251.541 199.178C252.879 200.537 254.669 201.359 256.572 201.486C258.475 201.613 260.359 201.037 261.866 199.868C263.373 198.698 264.399 197.016 264.749 195.14Z" fill="#9F616A"/>
<path d="M244.542 189.355L241.144 181.245L219.965 140.903L221.117 66.2561L221.338 66.2268C234.889 64.4351 244.058 126.919 244.442 129.58L257.823 175.376L261.008 185.471L244.542 189.355Z" fill="#6C63FF"/>
<path d="M212.001 346.76L222.298 346.759L227.196 307.014L211.999 307.015L212.001 346.76Z" fill="#9F616A"/>
<path d="M209.374 343.396L229.652 343.395H229.653C233.081 343.395 236.368 344.758 238.791 347.183C241.215 349.608 242.576 352.897 242.576 356.327V356.747L209.374 356.748L209.374 343.396Z" fill="#2F2E41"/>
<path d="M117.323 331.06L125.771 336.952L152.498 307.146L140.029 298.451L117.323 331.06Z" fill="#9F616A"/>
<path d="M117.09 326.798L133.728 338.399L133.728 338.4C136.54 340.361 138.458 343.359 139.061 346.736C139.664 350.112 138.902 353.59 136.942 356.404L136.702 356.748L109.461 337.753L117.09 326.798Z" fill="#2F2E41"/>
<path d="M206.341 337.418L205.896 262.858L199.417 215.976L187.338 257.204L187.315 257.238L143.541 320.833L126.508 312.197L126.601 311.975C127.642 309.498 152.17 251.308 158.763 251.308C159.339 251.348 159.916 251.248 160.444 251.015C160.972 250.783 161.436 250.426 161.796 249.974C163.731 247.388 162.155 241.901 162.139 241.846C160.252 234.015 164.997 231.348 165.942 230.902L168.484 178.389L168.748 178.407L237.663 183.244L234.772 248.9L228.553 334.923L228.339 334.947L206.341 337.418Z" fill="#2F2E41"/>
<path d="M238.716 194.881L238.418 194.856L164.301 188.878L164.484 164.337L168.112 100.26L168.133 100.216L182.906 68.1208L193.378 63.3754L208.657 62.5708L208.694 62.5801L222.638 66.0372L237.143 170.238L238.716 194.881Z" fill="#6C63FF"/>
<path d="M211.051 54.3453C220.508 49.1722 223.983 37.307 218.814 27.8437C213.644 18.3804 201.788 14.9025 192.331 20.0756C182.874 25.2487 179.399 37.1139 184.568 46.5773C189.738 56.0406 201.595 59.5185 211.051 54.3453Z" fill="#9F616A"/>
<path d="M182.066 42.1123V34.5038C182.066 34.5038 175.934 27.2772 182.679 25.4569C182.679 25.4569 184.519 7.25318 200.46 15.7482C200.46 15.7482 222.534 12.1075 220.081 24.8501C220.081 24.8501 225.6 21.5234 223.76 30.0185L220.203 43.7025C220.203 43.7025 221.921 34.6632 216.402 33.4496L213.337 31.6292C213.337 31.6292 204.753 40.1243 191.876 29.8089C191.876 29.8089 186.358 28.4908 186.971 33.952C187.584 39.4131 182.066 42.1123 182.066 42.1123Z" fill="#2F2E41"/>
<path d="M199.659 176.554C199.672 175.421 199.435 174.298 198.967 173.266C198.499 172.234 197.811 171.317 196.95 170.58C196.09 169.842 195.078 169.303 193.987 168.999C192.896 168.696 191.751 168.635 190.634 168.822L181.245 153.8L170.731 157.283L184.287 178.311C184.725 180.169 185.829 181.801 187.39 182.898C188.95 183.995 190.858 184.482 192.753 184.265C194.648 184.049 196.398 183.144 197.67 181.723C198.943 180.302 199.651 178.463 199.659 176.554Z" fill="#9F616A"/>
<path d="M175.41 171.819L158.424 137.308L158.439 137.224C158.507 136.842 165.345 98.8508 170.574 84.8863C175.836 70.8334 183.04 68.0119 183.344 67.8987L183.496 67.842L189.955 74.0418L181.008 133.803L190.652 162.625L175.41 171.819Z" fill="#6C63FF"/>
<path d="M595 0H562.112V32.9118H595V0Z" fill="#F1F1F1"/>
<path d="M337.612 128.07H304.723V160.982H337.612V128.07Z" fill="#F1F1F1"/>
<path d="M323.183 146.559H583.198V14.8345H323.183V146.559Z" fill="white"/>
<path d="M585.343 148.706H321.038V12.688H585.343V148.706ZM325.328 144.413H581.054V16.9808H325.328V144.413Z" fill="#E5E5E5"/>
<path d="M554.446 61.0413H354.393V67.6803H554.446V61.0413Z" fill="#E5E5E5"/>
<path d="M554.446 77.1416H354.393V83.7806H554.446V77.1416Z" fill="#E5E5E5"/>
<path d="M554.446 100.914H517.267V106.676H554.446V100.914Z" fill="#6C63FF"/>
<path d="M273.117 357.963H0.714967C0.525346 357.963 0.343491 357.887 0.209408 357.753C0.0753261 357.619 0 357.437 0 357.247C0 357.057 0.0753261 356.875 0.209408 356.741C0.343491 356.607 0.525346 356.532 0.714967 356.532H273.117C273.307 356.532 273.489 356.607 273.623 356.741C273.757 356.875 273.832 357.057 273.832 357.247C273.832 357.437 273.757 357.619 273.623 357.753C273.489 357.887 273.307 357.963 273.117 357.963Z" fill="#CBCBCB"/>
</g>
<defs>
<clipPath id="clip0_30:123">
<rect width="595" height="357.992" fill="white"/>
</clipPath>
</defs>
</svg>