<svg width="315" height="213" viewBox="0 0 315 213" fill="none" xmlns="http://www.w3.org/2000/svg">
<g clip-path="url(#clip0_37_228)">
<path d="M115.571 204.456C102.988 198.673 92.6596 186.473 92.3662 172.647C104.285 181.844 119.078 186.535 134.128 185.891C139.931 185.622 146.358 184.719 151.018 188.182C153.918 190.337 155.536 193.872 156.118 197.434C156.699 200.995 156.359 204.635 156.016 208.228L156.354 209.064C142.584 210.571 128.154 210.238 115.571 204.456Z" fill="#F0F0F0"/>
<path d="M92.6533 172.602C98.494 182.452 107.295 190.214 117.806 194.787C120.052 195.811 122.445 196.476 124.897 196.756C127.295 196.952 129.702 196.504 131.868 195.457C133.907 194.522 135.884 193.329 138.115 192.905C139.261 192.705 140.435 192.748 141.563 193.033C142.69 193.318 143.744 193.837 144.656 194.557C146.975 196.293 148.531 198.756 149.97 201.218C151.566 203.952 153.182 206.816 155.878 208.619C156.205 208.837 155.847 209.33 155.52 209.112C150.828 205.977 149.487 200.037 145.592 196.172C143.775 194.369 141.402 193.101 138.777 193.418C136.481 193.696 134.441 194.924 132.385 195.889C130.287 196.941 127.964 197.464 125.617 197.413C123.158 197.258 120.743 196.686 118.476 195.723C113.338 193.634 108.56 190.753 104.318 187.183C99.4548 183.135 95.3206 178.287 92.0946 172.848C91.895 172.511 92.455 172.267 92.6533 172.602L92.6533 172.602Z" fill="white"/>
<path d="M114.335 193.513C113.327 195.17 111.762 196.415 109.92 197.026C108.078 197.637 106.078 197.574 104.277 196.849C103.914 196.701 104.127 196.13 104.491 196.278C106.166 196.956 108.029 197.014 109.744 196.442C111.458 195.869 112.911 194.704 113.84 193.156C114.043 192.82 114.536 193.179 114.335 193.513V193.513Z" fill="white"/>
<path d="M130.897 196.067C129.99 192.21 127.66 188.836 124.372 186.618C124.046 186.399 124.404 185.905 124.729 186.124C128.147 188.439 130.564 191.955 131.5 195.971C131.588 196.354 130.985 196.448 130.897 196.067V196.067Z" fill="white"/>
<path d="M100.177 182.771C100.701 182.211 101.077 181.531 101.272 180.79C101.467 180.049 101.475 179.271 101.295 178.527C101.201 178.145 101.804 178.051 101.897 178.43C102.093 179.254 102.083 180.113 101.87 180.932C101.656 181.751 101.245 182.505 100.672 183.129C100.623 183.192 100.552 183.234 100.472 183.247C100.393 183.26 100.312 183.242 100.246 183.197C100.181 183.149 100.137 183.078 100.124 182.998C100.111 182.918 100.13 182.837 100.177 182.771Z" fill="white"/>
<path d="M127.867 142.049C127.932 142.286 127.998 142.522 128.068 142.761C128.962 145.936 130.113 149.034 131.51 152.024C131.614 152.257 131.723 152.491 131.834 152.721C135.276 159.888 140.021 166.355 145.828 171.792C148.14 173.954 150.614 175.937 153.228 177.724C156.838 180.192 160.949 182.58 163.458 185.994C163.724 186.347 163.968 186.717 164.188 187.1L157.348 208.588C157.308 208.629 157.273 208.672 157.233 208.713L156.999 209.583C156.858 209.501 156.713 209.412 156.572 209.329C156.49 209.281 156.409 209.229 156.327 209.181C156.273 209.148 156.219 209.114 156.168 209.087C156.15 209.076 156.132 209.065 156.118 209.056C156.067 209.029 156.023 208.998 155.977 208.973C155.167 208.478 154.358 207.977 153.552 207.47C153.547 207.468 153.547 207.468 153.544 207.462C147.411 203.578 141.549 199.15 136.546 193.974C136.395 193.818 136.24 193.661 136.093 193.495C133.851 191.149 131.805 188.625 129.975 185.946C128.977 184.476 128.055 182.957 127.212 181.394C125.04 177.351 123.519 172.993 122.705 168.478C121.082 159.479 122.36 150.061 127.471 142.614C127.602 142.424 127.731 142.238 127.867 142.049Z" fill="#F0F0F0"/>
<path d="M128.125 142.184C126.848 153.559 129.194 165.047 134.829 175.016C136.004 177.183 137.514 179.152 139.303 180.851C141.1 182.449 143.292 183.537 145.652 184.003C147.844 184.482 150.142 184.718 152.18 185.72C153.215 186.249 154.126 186.99 154.855 187.895C155.583 188.8 156.111 189.848 156.405 190.971C157.211 193.751 156.967 196.653 156.631 199.483C156.257 202.626 155.819 205.884 156.886 208.944C157.015 209.314 156.431 209.493 156.302 209.123C154.447 203.799 156.958 198.25 156.179 192.823C155.816 190.291 154.686 187.853 152.398 186.528C150.398 185.37 148.028 185.124 145.805 184.659C143.495 184.238 141.325 183.259 139.482 181.807C137.612 180.206 136.028 178.298 134.799 176.166C131.956 171.41 129.879 166.237 128.646 160.838C127.203 154.683 126.826 148.327 127.53 142.045C127.574 141.656 128.168 141.798 128.125 142.184H128.125Z" fill="white"/>
<path d="M132.825 171.913C131.022 172.63 129.021 172.683 127.182 172.063C125.342 171.444 123.783 170.192 122.783 168.531C122.582 168.194 123.097 167.866 123.298 168.203C124.227 169.752 125.679 170.918 127.393 171.491C129.107 172.065 130.97 172.008 132.646 171.33C133.01 171.183 133.187 171.767 132.825 171.913Z" fill="white"/>
<path d="M144.509 183.907C146.111 180.282 146.285 176.187 144.997 172.44C144.869 172.069 145.453 171.89 145.581 172.261C146.914 176.163 146.723 180.424 145.048 184.192C144.888 184.551 144.35 184.264 144.509 183.907Z" fill="white"/>
<path d="M128 154.826C128.755 154.694 129.466 154.376 130.069 153.902C130.671 153.428 131.146 152.812 131.451 152.109C131.607 151.748 132.145 152.035 131.991 152.394C131.65 153.169 131.125 153.849 130.46 154.375C129.796 154.9 129.013 155.255 128.179 155.409C128.102 155.43 128.019 155.421 127.948 155.383C127.877 155.346 127.824 155.283 127.798 155.207C127.774 155.13 127.782 155.046 127.82 154.975C127.858 154.904 127.922 154.85 128 154.826Z" fill="white"/>
<path d="M291.49 203.427C290.201 206.096 288.5 208.547 286.449 210.689C285.989 211.168 285.515 211.632 285.029 212.08C284.692 212.393 284.347 212.699 283.995 213H260.152C260.171 212.691 260.206 212.386 260.253 212.08C260.405 211.092 260.751 210.144 261.271 209.29C263.253 206.105 267.329 205.127 270.883 203.918C271.731 203.628 272.571 203.311 273.396 202.963C274.46 202.519 275.506 202.028 276.524 201.495C281.08 199.11 285.153 195.902 288.536 192.033C288.645 191.91 288.749 191.786 288.854 191.659C290.243 190.035 291.497 188.302 292.605 186.476C292.69 186.345 292.767 186.209 292.849 186.074C292.899 186.213 292.949 186.356 293 186.495C294.897 192.018 294.06 198.105 291.49 203.427Z" fill="#F0F0F0"/>
<path d="M293.062 186.128C293.042 186.252 293.023 186.375 293 186.495C292.544 189.165 291.784 191.774 290.735 194.271C290.253 195.422 289.712 196.547 289.113 197.641C287.952 199.771 286.576 201.777 285.006 203.628C284.92 203.728 284.831 203.829 284.746 203.929C284.073 204.698 283.367 205.43 282.629 206.124C281.494 207.239 280.179 208.154 278.738 208.83C277.567 209.33 276.302 209.573 275.029 209.541C274.789 209.541 274.549 209.529 274.305 209.514C273.33 209.452 272.331 209.321 271.348 209.348C270.852 209.354 270.358 209.419 269.877 209.541C269.219 209.735 268.607 210.06 268.078 210.496C267.549 210.933 267.114 211.472 266.799 212.08C266.663 212.316 266.54 212.56 266.431 212.811C266.404 212.872 266.377 212.938 266.354 213H265.928C266.048 212.685 266.188 212.378 266.346 212.08C266.427 211.922 266.516 211.767 266.609 211.616C266.987 210.968 267.498 210.407 268.109 209.969C268.719 209.532 269.415 209.228 270.152 209.077C270.598 208.995 271.052 208.955 271.507 208.957C272.509 208.942 273.516 209.081 274.514 209.135C274.619 209.139 274.724 209.147 274.828 209.147C274.96 209.151 275.095 209.151 275.227 209.151C276.54 209.152 277.836 208.849 279.013 208.266C280.42 207.516 281.701 206.551 282.81 205.406C283.411 204.814 283.987 204.196 284.537 203.558C284.564 203.531 284.588 203.504 284.611 203.477C286.97 200.736 288.887 197.644 290.294 194.314C290.348 194.194 290.398 194.074 290.448 193.954C291.441 191.548 292.164 189.04 292.605 186.476C292.628 186.356 292.647 186.232 292.667 186.113C292.705 185.865 293.1 185.881 293.062 186.128Z" fill="white"/>
<path d="M284.594 203.817C285.593 204.575 286.829 204.953 288.082 204.884C289.335 204.816 290.523 204.305 291.433 203.443C291.617 203.268 291.353 202.975 291.169 203.15C290.323 203.955 289.216 204.43 288.05 204.492C286.883 204.553 285.733 204.196 284.806 203.485C284.605 203.331 284.394 203.664 284.594 203.817V203.817Z" fill="white"/>
<path d="M275.242 209.271C274.872 206.737 275.472 204.157 276.923 202.045C277.066 201.836 276.734 201.624 276.59 201.833C275.085 204.034 274.466 206.72 274.857 209.355C274.894 209.607 275.279 209.521 275.242 209.271V209.271Z" fill="white"/>
<path d="M290.557 194.009C290.109 193.796 289.721 193.476 289.428 193.076C289.135 192.677 288.946 192.211 288.878 191.721C288.843 191.469 288.458 191.556 288.492 191.805C288.57 192.347 288.78 192.861 289.103 193.303C289.425 193.745 289.852 194.101 290.344 194.341C290.389 194.367 290.442 194.376 290.492 194.364C290.543 194.353 290.588 194.323 290.617 194.281C290.645 194.237 290.654 194.183 290.643 194.132C290.632 194.081 290.601 194.037 290.557 194.009V194.009Z" fill="white"/>
<path d="M273.976 199.578C273.837 200.722 273.643 201.846 273.396 202.963V202.967C272.93 205.011 272.299 207.013 271.506 208.954V208.957C271.456 209.093 271.402 209.22 271.348 209.348C270.964 210.272 270.55 211.18 270.109 212.08C269.958 212.389 269.803 212.695 269.644 213H254.109L253.358 212.08L253.095 211.756C253.137 211.473 253.196 211.192 253.273 210.917C253.97 208.27 255.874 205.862 257.461 203.524C258.609 201.831 259.624 200.053 260.5 198.206C262.703 193.564 264.023 188.554 264.391 183.43C264.403 183.264 264.41 183.098 264.418 182.932C264.548 180.804 264.505 178.669 264.29 176.547V176.54C264.275 176.385 264.259 176.226 264.24 176.072C264.364 176.157 264.488 176.234 264.608 176.315C264.608 176.315 264.609 176.315 264.609 176.316C264.61 176.316 264.61 176.316 264.611 176.316C264.611 176.317 264.611 176.317 264.611 176.318C264.612 176.318 264.612 176.319 264.612 176.319H264.616C269.443 179.581 272.447 184.926 273.612 190.708C273.616 190.719 273.616 190.731 273.62 190.743C274.2 193.651 274.32 196.632 273.976 199.578Z" fill="#F0F0F0"/>
<path d="M268.564 194.808C268.557 194.94 268.549 195.067 268.537 195.199C268.464 196.215 268.344 197.228 268.173 198.229C267.938 199.801 267.438 201.322 266.695 202.727C266.062 203.83 265.199 204.783 264.163 205.522C263.969 205.669 263.772 205.808 263.571 205.939C262.343 206.743 260.977 207.454 260.048 208.621C259.298 209.61 258.952 210.846 259.08 212.08C259.1 212.389 259.141 212.697 259.204 213H258.805C258.754 212.75 258.717 212.497 258.693 212.243C258.689 212.188 258.685 212.134 258.681 212.08C258.615 211.36 258.696 210.634 258.921 209.947C259.146 209.26 259.51 208.626 259.99 208.084C260.977 206.998 262.301 206.314 263.505 205.506C263.594 205.448 263.679 205.386 263.764 205.325C263.872 205.251 263.981 205.17 264.085 205.089C265.138 204.304 265.991 203.284 266.575 202.109C267.247 200.666 267.687 199.125 267.879 197.545C267.999 196.71 268.09 195.873 268.15 195.033C268.15 194.994 268.154 194.959 268.154 194.92V194.917C268.383 191.311 268.052 187.692 267.175 184.188C267.14 184.06 267.105 183.937 267.074 183.809C266.418 181.293 265.484 178.858 264.291 176.547V176.539C264.233 176.431 264.178 176.323 264.12 176.215C264 175.995 264.325 175.766 264.442 175.991C264.5 176.099 264.554 176.207 264.608 176.315C264.608 176.315 264.609 176.315 264.609 176.316C264.61 176.316 264.61 176.316 264.611 176.316C264.611 176.317 264.611 176.317 264.612 176.318C264.612 176.318 264.612 176.319 264.612 176.319C265.869 178.741 266.84 181.3 267.508 183.944C267.813 185.134 268.055 186.339 268.232 187.554C268.59 189.955 268.702 192.385 268.564 194.808Z" fill="white"/>
<path d="M268.349 195.203C269.604 195.208 270.819 194.767 271.778 193.959C272.737 193.151 273.377 192.029 273.584 190.794C273.625 190.544 273.238 190.469 273.197 190.719C273.006 191.87 272.41 192.915 271.515 193.665C270.62 194.415 269.487 194.821 268.318 194.811C268.065 194.808 268.096 195.201 268.349 195.203V195.203Z" fill="white"/>
<path d="M264.171 205.179C262.347 203.378 261.271 200.958 261.155 198.4C261.144 198.146 260.751 198.177 260.762 198.43C260.887 201.092 262.012 203.609 263.914 205.478C264.096 205.656 264.351 205.356 264.171 205.179Z" fill="white"/>
<path d="M267.195 183.788C266.709 183.887 266.206 183.864 265.731 183.722C265.256 183.579 264.824 183.321 264.474 182.97C264.295 182.79 264.04 183.09 264.217 183.27C264.606 183.655 265.084 183.94 265.608 184.098C266.132 184.257 266.687 184.285 267.225 184.181C267.277 184.175 267.324 184.15 267.358 184.111C267.391 184.071 267.409 184.021 267.407 183.969C267.402 183.917 267.378 183.869 267.338 183.835C267.298 183.801 267.247 183.784 267.195 183.788Z" fill="white"/>
<path d="M1.61596 45.434C1.99131 31.61 9.16414 17.3309 21.7813 11.6231C18.0002 26.1805 19.4988 41.6037 26.0118 55.1642C28.5426 60.3848 31.9019 65.9283 30.5457 71.568C29.7019 75.0771 27.0834 77.9528 24.0322 79.8877C20.9808 81.8227 17.4945 82.9415 14.0513 84.0406L13.4146 84.679C6.6097 72.6336 1.24061 59.2581 1.61596 45.434Z" fill="#F0F0F0"/>
<path d="M21.9358 11.8689C15.1621 21.1044 11.4755 32.2359 11.3997 43.6822C11.3395 46.1461 11.6687 48.604 12.3753 50.9655C13.1379 53.2437 14.4978 55.2764 16.3135 56.8525C17.977 58.356 19.8529 59.7016 21.1213 61.5826C21.7562 62.555 22.178 63.6505 22.3592 64.7971C22.5403 65.9438 22.4765 67.1157 22.1722 68.236C21.4865 71.0472 19.8299 73.4448 18.1283 75.7333C16.239 78.2741 14.2362 80.8835 13.6374 84.0676C13.5649 84.4534 12.9695 84.3184 13.0419 83.9332C14.0838 78.3934 19.026 74.8257 21.0535 69.7307C21.9996 67.3532 22.2337 64.6767 20.9086 62.392C19.7498 60.3941 17.8165 59.0048 16.1191 57.497C14.3252 55.9855 12.9294 54.0583 12.0535 51.8841C11.2288 49.5661 10.8053 47.1249 10.801 44.6651C10.7029 39.1274 11.4776 33.6088 13.0966 28.3113C14.9109 22.2551 17.7495 16.5534 21.4896 11.4528C21.7212 11.1372 22.1659 11.5554 21.9358 11.8689H21.9358Z" fill="white"/>
<path d="M11.2068 39.9951C9.28486 39.7217 7.52287 38.7751 6.23547 37.3245C4.94808 35.8738 4.21911 34.0135 4.17877 32.0759C4.17195 31.6838 4.78195 31.6548 4.78878 32.0474C4.82302 33.8518 5.50222 35.5846 6.70381 36.933C7.90539 38.2814 9.55021 39.1566 11.3414 39.4006C11.7306 39.4541 11.5937 40.0483 11.2068 39.9951V39.9951Z" fill="white"/>
<path d="M15.3696 56.2011C18.5647 53.8513 20.7553 50.3855 21.5046 46.4949C21.5786 46.1094 22.174 46.2442 22.1001 46.6293C21.3128 50.6765 19.0258 54.2785 15.6955 56.7165C15.3779 56.9486 15.0537 56.432 15.3696 56.2011Z" fill="white"/>
<path d="M15.5304 22.7752C16.252 23.0357 17.027 23.1132 17.786 23.0008C18.545 22.8883 19.2641 22.5894 19.8787 22.1309C20.1932 21.8949 20.5171 22.4118 20.2046 22.6463C19.5232 23.1497 18.7286 23.4788 17.8903 23.605C17.0521 23.7311 16.1956 23.6503 15.3958 23.3698C15.3182 23.3496 15.2512 23.3007 15.2084 23.233C15.1656 23.1653 15.1502 23.0839 15.1654 23.0053C15.1836 22.9267 15.2322 22.8584 15.3005 22.8153C15.3689 22.7722 15.4515 22.7578 15.5304 22.7752L15.5304 22.7752Z" fill="white"/>
<path d="M63.9243 32.1717C63.7321 32.3247 63.5399 32.4777 63.348 32.6358C60.7751 34.7058 58.3748 36.981 56.171 39.439C55.9976 39.6264 55.8247 39.8188 55.657 40.0108C50.4107 45.9892 46.3218 52.8881 43.5981 60.3568C42.5171 63.3297 41.6641 66.3805 41.0467 69.4826C40.1942 73.7668 39.6113 78.4797 37.4545 82.1253C37.2337 82.5082 36.9894 82.877 36.723 83.2297L14.2442 85.4049C14.1906 85.3842 14.1373 85.3687 14.0835 85.3481L13.1899 85.4759C13.2106 85.3137 13.2355 85.1459 13.2561 84.9837C13.2677 84.8895 13.2843 84.7949 13.2959 84.7008C13.3052 84.6378 13.3148 84.5749 13.3196 84.5176C13.3226 84.4966 13.3259 84.4756 13.3294 84.4598C13.3342 84.4025 13.3447 84.3497 13.35 84.2976C13.4867 83.3593 13.6283 82.4204 13.7805 81.4806C13.78 81.4755 13.78 81.4755 13.7845 81.4699C14.9483 74.313 16.7208 67.1903 19.5199 60.5626C19.6042 60.3632 19.6877 60.1587 19.7822 59.9584C21.0605 56.9779 22.5807 54.1067 24.3275 51.3735C25.2889 49.8799 26.3253 48.4359 27.4329 47.047C30.3017 43.4637 33.7172 40.3532 37.5541 37.8295C45.2039 32.7997 54.3797 30.2683 63.248 32.0304C63.4748 32.0757 63.6969 32.1214 63.9243 32.1717Z" fill="#F0F0F0"/>
<path d="M63.9014 32.4614C52.9233 35.7641 43.2666 42.436 36.303 51.5297C34.7691 53.4608 33.5497 55.6212 32.6896 57.9313C31.9247 60.2088 31.7846 62.6492 32.2838 64.999C32.7053 67.1992 33.3916 69.4012 33.2699 71.6654C33.1904 72.8235 32.8666 73.9517 32.3197 74.9761C31.7728 76.0005 31.0152 76.8979 30.0965 77.6095C27.8537 79.4419 25.0851 80.3606 22.3463 81.165C19.3054 82.0582 16.1328 82.9378 13.7344 85.1202C13.4438 85.3846 13.0498 84.919 13.3399 84.6549C17.5127 80.8579 23.6104 80.9799 28.302 78.1305C30.4911 76.8009 32.2921 74.8046 32.612 72.1839C32.8917 69.8921 32.1859 67.6209 31.7399 65.3967C31.2192 63.1116 31.2668 60.7339 31.8787 58.4714C32.6182 56.125 33.7522 53.9213 35.2323 51.9547C38.4936 47.4741 42.4403 43.5334 46.9278 40.2768C52.0287 36.5318 57.7337 33.6855 63.796 31.861C64.1713 31.7482 64.2742 32.3494 63.9014 32.4615L63.9014 32.4614Z" fill="white"/>
<path d="M38.3727 48.4698C37.0031 47.0963 36.1671 45.2815 36.014 43.3494C35.861 41.4173 36.4008 39.4938 37.5371 37.9225C37.7682 37.6053 38.2727 37.9488 38.0414 38.2664C36.9805 39.7277 36.4778 41.5195 36.624 43.3183C36.7702 45.1172 37.5557 46.8046 38.8387 48.076C39.1172 48.3527 38.6496 48.7448 38.3727 48.4698V48.4698Z" fill="white"/>
<path d="M31.923 63.9114C35.8913 63.9557 39.7304 62.5053 42.675 59.8492C42.9665 59.5858 43.3606 60.0513 43.0694 60.3144C40.0001 63.0727 36.0017 64.574 31.8724 64.5188C31.4788 64.5133 31.5316 63.9059 31.923 63.9114H31.923Z" fill="white"/>
<path d="M52.2098 37.3195C52.6289 37.9612 53.201 38.4889 53.8748 38.8553C54.5486 39.2217 55.303 39.4153 56.0703 39.4187C56.4637 39.4192 56.4106 40.0266 56.0197 40.0261C55.172 40.0184 54.3391 39.8036 53.5937 39.4005C52.8484 38.9973 52.2132 38.418 51.7438 37.7133C51.694 37.6506 51.67 37.5713 51.6766 37.4915C51.6833 37.4117 51.7201 37.3374 51.7796 37.2838C51.8416 37.232 51.9215 37.2066 52.0021 37.2133C52.0826 37.22 52.1573 37.2582 52.2098 37.3195Z" fill="white"/>
<path d="M223.6 212.238H159.335C155.743 212.234 152.299 210.807 149.759 208.272C147.219 205.736 145.791 202.298 145.787 198.712V99.7705C145.791 96.1846 147.219 92.7467 149.759 90.2111C152.299 87.6755 155.743 86.2492 159.335 86.2452H223.6C227.192 86.2492 230.636 87.6755 233.176 90.2111C235.716 92.7467 237.144 96.1846 237.148 99.7705V198.712C237.144 202.298 235.716 205.736 233.176 208.272C230.636 210.807 227.192 212.234 223.6 212.238Z" fill="white"/>
<path d="M216.632 202.412H166.303C162.762 202.408 159.368 201.002 156.864 198.503C154.361 196.004 152.952 192.615 152.948 189.08V109.403C152.952 105.868 154.361 102.479 156.864 99.9801C159.368 97.4807 162.762 96.0748 166.303 96.0708H216.632C220.172 96.0748 223.567 97.4807 226.07 99.9801C228.574 102.479 229.982 105.868 229.986 109.403V189.08C229.982 192.615 228.574 196.004 226.07 198.503C223.567 201.002 220.172 202.408 216.632 202.412Z" fill="#1F2729"/>
<path d="M236.944 173.413H146.356V194.283H236.944V173.413Z" fill="#3F3D56"/>
<path d="M17.9253 123.316L2.58586 103.627C1.59542 102.356 0.865483 100.902 0.437737 99.3495C0.00999018 97.7967 -0.107186 96.1751 0.0928936 94.5771C0.292973 92.9791 0.806394 91.4361 1.60383 90.0362C2.40127 88.6363 3.46711 87.4069 4.74049 86.4183L66.8706 38.1752C70.5063 35.3472 74.896 33.6511 79.4916 33.2987L84.7317 32.8936L129.853 6.50916C129.457 5.64781 129.392 4.67129 129.67 3.76533C129.949 2.85936 130.551 2.08715 131.362 1.59557C132.174 1.10399 133.138 0.927336 134.072 1.0992C135.005 1.27107 135.843 1.77948 136.425 2.52772L149.26 19.0014C149.844 19.7511 150.131 20.6894 150.067 21.6372C150.002 22.5849 149.59 23.4756 148.909 24.1391C148.228 24.8027 147.326 25.1926 146.375 25.2343C145.425 25.276 144.492 24.9666 143.755 24.3652L106.846 61.2132C106.06 67.3474 102.865 72.9187 97.965 76.702L35.1626 125.467C33.8894 126.456 32.4335 127.185 30.8781 127.612C29.3227 128.039 27.6983 128.156 26.0977 127.956C24.497 127.756 22.9514 127.244 21.5492 126.447C20.147 125.651 18.9156 124.587 17.9253 123.316Z" fill="white"/>
<path d="M223.6 212.238H159.335C155.743 212.234 152.299 210.807 149.759 208.272C147.219 205.736 145.791 202.298 145.787 198.712V99.7705C145.791 96.1846 147.219 92.7467 149.759 90.2111C152.299 87.6755 155.743 86.2492 159.335 86.2452H223.6C227.192 86.2492 230.636 87.6755 233.176 90.2111C235.716 92.7467 237.144 96.1846 237.148 99.7705V198.712C237.144 202.298 235.716 205.736 233.176 208.272C230.636 210.807 227.192 212.234 223.6 212.238ZM159.335 87.0181C155.948 87.0219 152.701 88.3667 150.306 90.7574C147.912 93.1481 146.565 96.3895 146.561 99.7705V198.712C146.565 202.093 147.912 205.335 150.306 207.726C152.701 210.116 155.948 211.461 159.335 211.465H223.6C226.987 211.461 230.234 210.116 232.629 207.726C235.023 205.335 236.37 202.093 236.374 198.712V99.7705C236.37 96.3895 235.023 93.1481 232.629 90.7574C230.234 88.3667 226.987 87.0219 223.6 87.0181H159.335Z" fill="#3F3D56"/>
<path d="M147.818 4.71121C151.297 3.2917 155.069 2.7342 158.811 3.08636C162.554 3.43852 166.155 4.68986 169.307 6.73346C175.791 10.8894 180.622 18.3767 182.236 26.7712C183.027 30.8851 183.313 35.6702 186.195 38.2313C188.307 40.107 191.182 40.1559 193.723 41.0628C201.237 43.7447 205.116 54.1557 204.021 63.1969C202.927 72.2382 198.054 80.0248 192.824 86.8417C194.487 83.1786 192.328 78.4279 189.17 76.5056C186.012 74.5833 182.248 74.7449 178.693 75.063C175.138 75.381 171.433 75.7841 168.118 74.2594C162.454 71.654 159.586 64.1043 159.159 57.0459C158.731 49.9874 160.144 42.9532 160.246 35.8782C160.347 28.8033 158.774 21.0529 153.879 16.8397C151.628 14.9021 148.842 13.8685 146.748 11.7062C144.654 9.544 143.53 5.43958 145.487 3.11022" fill="#1F2729"/>
<path d="M226.491 82.9769C226.289 82.9769 226.088 82.9841 225.888 82.9955C226.58 81.0509 226.679 78.9452 226.173 76.9444C225.667 74.9436 224.577 73.1376 223.043 71.7545C221.509 70.3715 219.599 69.4735 217.554 69.1741C215.508 68.8746 213.42 69.1872 211.553 70.0722C209.877 65.3641 206.276 62.107 202.103 62.107C197.929 62.107 194.328 65.3641 192.652 70.0722C191.25 69.4081 189.718 69.0636 188.166 69.0636C186.614 69.0636 185.082 69.4081 183.68 70.0722C182.004 65.3641 178.403 62.107 174.229 62.107C170.056 62.107 166.455 65.3641 164.779 70.0722C162.911 69.1869 160.823 68.8744 158.777 69.1743C156.731 69.4741 154.82 70.3728 153.286 71.7568C151.752 73.1407 150.663 74.9477 150.158 76.9493C149.652 78.9509 149.753 81.0572 150.446 83.0019C150.246 82.9866 150.044 82.9769 149.841 82.9769C144.068 82.9769 139.388 89.2061 139.388 96.8902C139.388 104.574 144.068 110.803 149.841 110.803C154.595 110.803 158.605 106.577 159.873 100.793C161.399 102.315 163.36 103.329 165.486 103.695C167.611 104.061 169.799 103.762 171.748 102.838C173.423 107.546 177.024 110.803 181.198 110.803C185.952 110.803 189.962 106.577 191.23 100.793C192.757 102.315 194.717 103.329 196.843 103.695C198.969 104.061 201.156 103.762 203.105 102.838C204.78 107.546 208.381 110.803 212.555 110.803C216.729 110.803 220.33 107.546 222.005 102.838C223.421 103.51 224.971 103.855 226.539 103.848C228.107 103.841 229.653 103.481 231.063 102.797C232.473 102.112 233.711 101.119 234.685 99.8922C235.658 98.6652 236.343 97.2351 236.688 95.7081C237.033 94.181 237.029 92.5961 236.677 91.0706C236.325 89.5451 235.634 88.1182 234.655 86.8956C233.676 85.673 232.434 84.6859 231.021 84.0076C229.607 83.3292 228.059 82.977 226.491 82.9769V82.9769Z" fill="#F0F0F0"/>
<path d="M170.745 112.736C171.814 112.736 172.681 111.871 172.681 110.804C172.681 109.736 171.814 108.871 170.745 108.871C169.676 108.871 168.81 109.736 168.81 110.804C168.81 111.871 169.676 112.736 170.745 112.736Z" fill="white"/>
<path d="M182.746 145.587C183.815 145.587 184.682 144.722 184.682 143.654C184.682 142.587 183.815 141.722 182.746 141.722C181.677 141.722 180.811 142.587 180.811 143.654C180.811 144.722 181.677 145.587 182.746 145.587Z" fill="white"/>
<path d="M195.134 123.171C196.203 123.171 197.07 122.306 197.07 121.238C197.07 120.171 196.203 119.306 195.134 119.306C194.065 119.306 193.199 120.171 193.199 121.238C193.199 122.306 194.065 123.171 195.134 123.171Z" fill="white"/>
<path d="M181.198 130.128C182.267 130.128 183.133 129.262 183.133 128.195C183.133 127.128 182.267 126.263 181.198 126.263C180.129 126.263 179.262 127.128 179.262 128.195C179.262 129.262 180.129 130.128 181.198 130.128Z" fill="white"/>
<path d="M205.587 150.997C206.656 150.997 207.522 150.132 207.522 149.065C207.522 147.998 206.656 147.133 205.587 147.133C204.518 147.133 203.651 147.998 203.651 149.065C203.651 150.132 204.518 150.997 205.587 150.997Z" fill="white"/>
<path d="M212.555 112.736C213.624 112.736 214.491 111.871 214.491 110.804C214.491 109.736 213.624 108.871 212.555 108.871C211.486 108.871 210.619 109.736 210.619 110.804C210.619 111.871 211.486 112.736 212.555 112.736Z" fill="white"/>
<path d="M236.761 180.756V179.983C246.337 179.983 255.522 176.186 262.293 169.425C269.065 162.665 272.869 153.496 272.869 143.936C272.869 134.375 269.065 125.206 262.293 118.446C255.522 111.686 246.337 107.888 236.761 107.888V107.115C246.543 107.115 255.924 110.994 262.841 117.9C269.757 124.805 273.643 134.17 273.643 143.936C273.643 153.701 269.757 163.067 262.841 169.972C255.924 176.877 246.543 180.756 236.761 180.756Z" fill="#3F3D56"/>
<path d="M236.944 173.8H236.557V172.825H237.331V173.024C244.635 172.922 251.603 169.941 256.713 164.73C261.824 159.52 264.664 152.503 264.613 145.211C264.562 137.918 261.624 130.942 256.441 125.804C251.257 120.665 244.249 117.781 236.944 117.781V117.008C244.488 117.008 251.722 120 257.056 125.325C262.39 130.651 265.387 137.873 265.387 145.404C265.387 152.935 262.39 160.158 257.056 165.483C251.722 170.808 244.488 173.8 236.944 173.8V173.8Z" fill="#3F3D56"/>
<path d="M21.1657 118.584L7.97735 101.656C7.13701 100.578 6.51771 99.3445 6.15479 98.0271C5.79187 96.7097 5.69245 95.3338 5.86221 93.978C6.03197 92.6222 6.46759 91.313 7.14418 90.1253C7.82077 88.9376 8.72508 87.8946 9.80547 87.0558L63.2228 45.5781C66.3273 43.1633 70.0754 41.7151 73.9993 41.4141L78.5365 41.0634L120.36 16.6074L131.603 31.0393L97.3749 65.2107C97.0475 67.8128 96.2086 70.3248 94.9063 72.6023C93.6039 74.8799 91.8638 76.8782 89.7858 78.4826L35.7904 120.409C34.7102 121.248 33.4749 121.866 32.1553 122.229C30.8357 122.591 29.4575 122.69 28.0994 122.521C26.7413 122.351 25.43 121.917 24.2403 121.241C23.0506 120.566 22.0058 119.663 21.1657 118.584Z" fill="#1F2729"/>
<path d="M145.516 19.4693C146.8 19.8289 148.448 19.4681 149.829 18.3954C151.854 16.8229 152.538 14.3189 151.357 12.8025C151.142 12.5277 150.875 12.2974 150.572 12.1244C150.723 11.6595 150.762 11.1654 150.686 10.6825C150.61 10.1996 150.421 9.74133 150.135 9.34503C149.982 9.14965 149.802 8.97663 149.601 8.83104C150.933 6.99036 151.432 5.34499 150.746 4.46392C150.547 4.24712 150.301 4.07812 150.027 3.96961C149.753 3.8611 149.458 3.81589 149.164 3.83736C149.261 3.08551 149.061 2.32557 148.607 1.71828C147.609 0.437832 145.601 0.275553 143.781 1.20159C143.759 1.17096 143.741 1.1381 143.718 1.10816C142.536 -0.408242 139.937 -0.362677 137.912 1.20986C136.898 1.96476 136.182 3.05107 135.889 4.27918C134.624 4.26056 133.394 4.68586 132.411 5.48084C130.386 7.05338 129.702 9.55737 130.883 11.0738C130.935 11.1408 130.994 11.2009 131.051 11.2618L131.027 11.2867C130.982 11.2146 130.937 11.1422 130.883 11.0738C129.702 9.55737 127.102 9.60294 125.077 11.1755C124.064 11.9304 123.348 13.0167 123.055 14.2448C121.79 14.2262 120.559 14.6515 119.577 15.4465C117.552 17.019 116.868 19.523 118.049 21.0394C119.23 22.5558 121.83 22.5102 123.855 20.9377C123.385 21.3016 123.016 21.7798 122.784 22.3266C122.552 22.8733 122.464 23.4704 122.529 24.0607C122.593 24.6511 122.809 25.215 123.154 25.6986C123.499 26.1822 123.963 26.5693 124.501 26.8229C124.073 27.8511 124.031 28.7175 124.466 29.2763C125.153 30.1573 126.873 30.079 128.988 29.2432C129.08 29.4737 129.203 29.6902 129.355 29.8864C130.537 31.4028 133.136 31.3572 135.161 29.7847C136.175 29.0298 136.891 27.9435 137.184 26.7155C138.449 26.734 139.679 26.3086 140.662 25.5137C141.128 25.1528 141.539 24.7251 141.88 24.2446C142.431 24.0326 142.947 23.7407 143.412 23.3782C144.793 22.3056 145.549 20.7999 145.516 19.4693Z" fill="#F0F0F0"/>
<path d="M17.9253 123.316L2.58586 103.627C1.59542 102.356 0.865483 100.902 0.437737 99.3495C0.00999018 97.7967 -0.107186 96.1751 0.0928936 94.5771C0.292973 92.9791 0.806394 91.4361 1.60383 90.0362C2.40127 88.6363 3.46711 87.4069 4.74049 86.4183L66.8706 38.1752C70.5063 35.3472 74.896 33.6511 79.4916 33.2987L84.7317 32.8936L129.853 6.50916C129.457 5.64781 129.392 4.67129 129.67 3.76533C129.949 2.85936 130.551 2.08715 131.362 1.59557C132.174 1.10399 133.138 0.927336 134.072 1.0992C135.005 1.27107 135.843 1.77948 136.425 2.52772L149.26 19.0014C149.844 19.7511 150.131 20.6894 150.067 21.6372C150.002 22.5849 149.59 23.4756 148.909 24.1391C148.228 24.8027 147.326 25.1926 146.375 25.2343C145.425 25.276 144.492 24.9666 143.755 24.3652L106.846 61.2132C106.06 67.3474 102.865 72.9187 97.965 76.702L35.1626 125.467C33.8894 126.456 32.4335 127.185 30.8781 127.612C29.3227 128.039 27.6983 128.156 26.0977 127.956C24.497 127.756 22.9514 127.244 21.5492 126.447C20.147 125.651 18.9156 124.587 17.9253 123.316ZM135.814 3.00227C135.332 2.38253 134.632 1.9692 133.855 1.84615C133.079 1.72309 132.285 1.89954 131.634 2.33968C130.983 2.77982 130.524 3.45068 130.351 4.2161C130.177 4.98153 130.302 5.78417 130.7 6.46114L130.896 6.79479L84.9693 33.6504L79.5514 34.0693C75.1072 34.4101 70.862 36.0504 67.3459 38.7854L5.21584 87.0284C4.02271 87.9547 3.02404 89.1066 2.27686 90.4183C1.52967 91.7299 1.04861 93.1757 0.861143 94.6729C0.673675 96.1702 0.783474 97.6897 1.18427 99.1446C1.58506 100.599 2.26899 101.961 3.19702 103.152L18.5364 122.841C19.4643 124.033 20.6181 125.03 21.9319 125.776C23.2458 126.522 24.6939 127.002 26.1937 127.189C27.6935 127.376 29.2155 127.266 30.6728 126.866C32.1302 126.466 33.4943 125.783 34.6873 124.857L97.4897 76.0918C99.8532 74.2669 101.831 71.9921 103.308 69.3991C104.785 66.806 105.732 63.9463 106.095 60.9853L106.111 60.8537L143.742 23.2852L144.016 23.559C144.573 24.1154 145.322 24.4389 146.109 24.4634C146.897 24.488 147.664 24.2118 148.255 23.6912C148.845 23.1706 149.215 22.4447 149.288 21.6615C149.361 20.8783 149.132 20.0967 148.648 19.476L135.814 3.00227Z" fill="#3F3D56"/>
<path d="M53.1894 49.2883L31.1877 66.3722L61.1345 104.811L83.1361 87.7269L53.1894 49.2883Z" fill="#3F3D56"/>
<path d="M31.731 66.44L61.2024 104.269L82.5929 87.6591L53.1214 49.8306L31.731 66.44Z" fill="#3F3D56"/>
<path d="M117.743 32.0222C118.812 32.0222 119.679 31.157 119.679 30.0898C119.679 29.0225 118.812 28.1574 117.743 28.1574C116.674 28.1574 115.808 29.0225 115.808 30.0898C115.808 31.157 116.674 32.0222 117.743 32.0222Z" fill="white"/>
<path d="M102.465 35.0729C103.534 35.0729 104.4 34.2077 104.4 33.1405C104.4 32.0733 103.534 31.2081 102.465 31.2081C101.396 31.2081 100.529 32.0733 100.529 33.1405C100.529 34.2077 101.396 35.0729 102.465 35.0729Z" fill="white"/>
<path d="M103.381 47.5807C104.45 47.5807 105.317 46.7156 105.317 45.6483C105.317 44.5811 104.45 43.7159 103.381 43.7159C102.312 43.7159 101.446 44.5811 101.446 45.6483C101.446 46.7156 102.312 47.5807 103.381 47.5807Z" fill="white"/>
<path d="M88.1024 50.6315C89.1714 50.6315 90.038 49.7663 90.038 48.6991C90.038 47.6318 89.1714 46.7667 88.1024 46.7667C87.0334 46.7667 86.1667 47.6318 86.1667 48.6991C86.1667 49.7663 87.0334 50.6315 88.1024 50.6315Z" fill="white"/>
<path d="M167.649 27.7102C168.718 27.7102 169.584 26.845 169.584 25.7778C169.584 24.7106 168.718 23.8454 167.649 23.8454C166.58 23.8454 165.713 24.7106 165.713 25.7778C165.713 26.845 166.58 27.7102 167.649 27.7102Z" fill="white"/>
<path d="M174.617 38.1452C175.686 38.1452 176.552 37.28 176.552 36.2128C176.552 35.1455 175.686 34.2804 174.617 34.2804C173.548 34.2804 172.681 35.1455 172.681 36.2128C172.681 37.28 173.548 38.1452 174.617 38.1452Z" fill="white"/>
<path d="M174.617 55.5368C175.686 55.5368 176.552 54.6716 176.552 53.6044C176.552 52.5372 175.686 51.672 174.617 51.672C173.548 51.672 172.681 52.5372 172.681 53.6044C172.681 54.6716 173.548 55.5368 174.617 55.5368Z" fill="white"/>
<path d="M146.393 67.0576C144.251 67.1246 137.393 67.573 133.83 70.5607C129.574 74.13 129.573 77.5195 131.636 79.9712C133.699 82.4228 137.043 83.0082 141.3 79.439C144.908 76.4135 146.531 69.6145 146.942 67.6125L146.393 67.0576Z" fill="#F2F2F2"/>
<path d="M201.432 24.0805C202.794 25.7312 207.343 30.8746 211.89 31.8622C217.322 33.0421 220.008 30.9696 220.69 27.8411C221.372 24.7125 219.791 21.7129 214.359 20.5329C209.755 19.5327 203.374 22.4081 201.536 23.3076L201.432 24.0805Z" fill="#F2F2F2"/>
<path d="M236.256 74.7106C236.508 76.8347 237.548 83.6172 240.837 86.903C244.766 90.8284 248.149 90.5359 250.417 88.2727C252.686 86.0094 252.981 82.6328 249.052 78.7073C245.721 75.3797 238.796 74.3526 236.763 74.1167L236.256 74.7106Z" fill="#F2F2F2"/>
<path d="M315 212.54C315 212.601 314.987 212.661 314.964 212.717C314.941 212.773 314.906 212.823 314.863 212.866C314.82 212.909 314.769 212.943 314.713 212.966C314.656 212.989 314.596 213 314.535 213H63.9529C63.8307 213 63.7135 212.952 63.6271 212.865C63.5407 212.779 63.4922 212.662 63.4922 212.54C63.4922 212.418 63.5407 212.301 63.6271 212.215C63.7135 212.129 63.8307 212.08 63.9529 212.08H314.535C314.596 212.08 314.656 212.092 314.713 212.115C314.769 212.138 314.82 212.171 314.863 212.214C314.906 212.257 314.941 212.308 314.964 212.364C314.987 212.419 315 212.479 315 212.54Z" fill="#3F3D56"/>
</g>
<defs>
<clipPath id="clip0_37_228">
<rect width="315" height="213" fill="white"/>
</clipPath>
</defs>
</svg>
