<svg width="340" height="213" viewBox="0 0 340 213" fill="none" xmlns="http://www.w3.org/2000/svg">
<g clip-path="url(#clip0_37_293)">
<path d="M35.6205 69.4113C34.5892 69.4072 33.5859 69.0755 32.7559 68.4644L25.8526 63.4581C25.2798 63.0406 24.589 62.8156 23.8797 62.8156C23.1705 62.8156 22.4796 63.0406 21.9069 63.4581L15.0036 68.4644C14.171 69.0682 13.1684 69.3934 12.1393 69.3934C11.1102 69.3935 10.1075 69.0683 9.27496 68.4646C8.44238 67.8609 7.82263 67.0096 7.50452 66.0327C7.18642 65.0558 7.18631 64.0034 7.50417 63.0264L10.1411 54.926C10.3615 54.253 10.3622 53.5276 10.1431 52.8543C9.92401 52.1809 9.49636 51.5944 8.92184 51.1792L2.01855 46.1728C1.18604 45.569 0.566402 44.7176 0.248445 43.7406C-0.0695129 42.7636 -0.0694651 41.7112 0.248568 40.7343C0.5666 39.7574 1.1863 38.906 2.01885 38.3022C2.85141 37.6984 3.85408 37.3732 4.88317 37.3732H13.4159C14.1251 37.3744 14.8163 37.151 15.39 36.7349C15.9637 36.3188 16.3903 35.7317 16.6082 35.0581L19.2451 26.9577C19.5631 25.9806 20.1827 25.129 21.0153 24.5251C21.8479 23.9212 22.8507 23.5959 23.8799 23.5959C24.9091 23.5959 25.9119 23.9212 26.7445 24.5251C27.5771 25.129 28.1968 25.9806 28.5147 26.9577L31.1513 35.0581C31.3693 35.7317 31.7959 36.3189 32.3697 36.7349C32.9435 37.151 33.6347 37.3745 34.3439 37.3732H42.8767C43.9058 37.3732 44.9084 37.6984 45.741 38.3022C46.5736 38.906 47.1933 39.7574 47.5113 40.7343C47.8293 41.7113 47.8294 42.7636 47.5114 43.7406C47.1935 44.7176 46.5738 45.569 45.7413 46.1728L38.838 51.1792C38.2634 51.5943 37.8356 52.1808 37.6164 52.8542C37.3973 53.5275 37.3979 54.253 37.6184 54.926L40.2553 63.0264C40.5849 64.0024 40.5907 65.0584 40.2718 66.0379C39.9529 67.0175 39.3262 67.8683 38.4848 68.4644C37.6549 69.0755 36.6518 69.4071 35.6205 69.4113Z" fill="#1F2729"/>
<path d="M105.575 69.4113C104.544 69.4071 103.54 69.0755 102.711 68.4644L95.8073 63.4581C95.2341 63.0416 94.5433 62.8172 93.8343 62.8172C93.1252 62.8172 92.4345 63.0416 91.8612 63.4581L84.9579 68.4644C84.1254 69.0682 83.1228 69.3935 82.0937 69.3935C81.0646 69.3935 80.0619 69.0684 79.2294 68.4646C78.3968 67.8609 77.7771 67.0096 77.459 66.0326C77.141 65.0557 77.1409 64.0034 77.4589 63.0264L80.0954 54.926C80.3159 54.253 80.3166 53.5276 80.0975 52.8543C79.8784 52.1809 79.4507 51.5944 78.8762 51.1792L71.9729 46.1728C71.1404 45.569 70.5208 44.7176 70.2028 43.7406C69.8848 42.7636 69.8849 41.7113 70.2029 40.7343C70.5209 39.7574 71.1406 38.906 71.9732 38.3022C72.8057 37.6984 73.8084 37.3732 74.8375 37.3732H83.3703C84.0794 37.3745 84.7707 37.151 85.3444 36.7349C85.9181 36.3189 86.3447 35.7317 86.5626 35.0581L89.1995 26.9577C89.5174 25.9806 90.1371 25.129 90.9697 24.5251C91.8023 23.9212 92.8051 23.5959 93.8343 23.5959C94.8635 23.5959 95.8663 23.9212 96.6989 24.5251C97.5315 25.129 98.1512 25.9806 98.4691 26.9577L101.106 35.0581C101.324 35.7317 101.75 36.3188 102.324 36.7349C102.898 37.151 103.589 37.3744 104.298 37.3732H112.831C113.86 37.3732 114.863 37.6984 115.695 38.3022C116.528 38.906 117.148 39.7574 117.466 40.7343C117.784 41.7113 117.784 42.7636 117.466 43.7406C117.148 44.7176 116.528 45.569 115.696 46.1728L108.792 51.1792C108.218 51.5944 107.79 52.1809 107.571 52.8543C107.352 53.5276 107.353 54.253 107.573 54.926L110.21 63.0264C110.539 64.0024 110.545 65.0584 110.226 66.0379C109.907 67.0174 109.281 67.8682 108.439 68.4644C107.609 69.0755 106.606 69.4071 105.575 69.4113Z" fill="#1F2729"/>
<path d="M151.439 69.6929C150.307 69.6883 149.205 69.3245 148.293 68.6539C147.369 67.9989 146.681 67.064 146.33 65.9879C145.98 64.9118 145.986 63.7516 146.348 62.6793L148.985 54.579C149.174 54.0024 149.175 53.3808 148.987 52.8038C148.799 52.2268 148.433 51.7242 147.94 51.3685L141.037 46.3617C140.122 45.6985 139.441 44.7632 139.092 43.6901C138.743 42.6169 138.743 41.4609 139.092 40.3877C139.441 39.3145 140.122 38.3793 141.037 37.7161C141.951 37.0529 143.053 36.6957 144.183 36.6957H152.716C153.324 36.6968 153.916 36.5053 154.408 36.1486C154.9 35.7919 155.265 35.2886 155.452 34.7112L158.089 26.611C158.439 25.5378 159.119 24.6026 160.034 23.9394C160.948 23.2762 162.05 22.9189 163.18 22.9189C164.311 22.9189 165.412 23.2762 166.326 23.9394C167.241 24.6026 167.922 25.5378 168.271 26.611L170.908 34.7112C171.094 35.2886 171.46 35.7919 171.952 36.1486C172.444 36.5052 173.036 36.6968 173.644 36.6957H182.177C183.307 36.6958 184.409 37.053 185.323 37.7162C186.238 38.3795 186.918 39.3147 187.268 40.3878C187.617 41.4609 187.617 42.6169 187.268 43.69C186.918 44.7632 186.238 45.6984 185.323 46.3617L178.42 51.3685C177.928 51.7241 177.561 52.2266 177.373 52.8037C177.185 53.3807 177.186 54.0023 177.375 54.579L180.012 62.6793C180.361 63.7525 180.361 64.9085 180.011 65.9816C179.662 67.0548 178.981 67.99 178.067 68.6532C177.152 69.3165 176.051 69.6737 174.92 69.6737C173.79 69.6737 172.689 69.3165 171.774 68.6533L164.871 63.6471C164.38 63.2895 163.788 63.0968 163.18 63.0968C162.572 63.0968 161.98 63.2895 161.489 63.6471L154.585 68.6533C153.674 69.3244 152.572 69.6885 151.439 69.6929ZM163.18 60.6242C164.311 60.6244 165.412 60.9827 166.326 61.6475L173.229 66.6537C173.721 67.0103 174.313 67.2025 174.92 67.2025C175.528 67.2026 176.12 67.0107 176.612 66.6542C177.103 66.2977 177.469 65.795 177.657 65.2182C177.845 64.6413 177.844 64.02 177.657 63.4431L175.02 55.3429C174.668 54.2699 174.667 53.1132 175.017 52.0395C175.366 50.9659 176.049 50.0307 176.965 49.3689L183.868 44.3622C184.359 44.0057 184.725 43.5031 184.913 42.9263C185.101 42.3495 185.101 41.7283 184.913 41.1515C184.725 40.5747 184.359 40.0721 183.868 39.7156C183.376 39.3592 182.784 39.1672 182.177 39.1671H173.644C172.513 39.1692 171.411 38.8128 170.496 38.1493C169.581 37.4857 168.901 36.5494 168.553 35.4751L165.916 27.3748C165.728 26.798 165.363 26.2954 164.871 25.9389C164.379 25.5824 163.787 25.3904 163.18 25.3904C162.572 25.3904 161.98 25.5824 161.489 25.9389C160.997 26.2954 160.631 26.798 160.444 27.3748L157.807 35.4751C157.459 36.5494 156.779 37.4858 155.864 38.1493C154.949 38.8129 153.847 39.1693 152.716 39.1671H144.183C143.576 39.1671 142.984 39.359 142.492 39.7155C142.001 40.0719 141.635 40.5746 141.447 41.1513C141.259 41.7281 141.259 42.3494 141.447 42.9262C141.635 43.503 142 44.0057 142.492 44.3622L149.395 49.3689C150.312 50.0309 150.994 50.966 151.343 52.0396C151.692 53.1133 151.691 54.2699 151.34 55.3429L148.703 63.4432C148.515 64.0199 148.515 64.6413 148.703 65.218C148.891 65.7948 149.256 66.2975 149.748 66.6539C150.24 67.0104 150.832 67.2023 151.439 67.2023C152.047 67.2022 152.639 67.0102 153.13 66.6537L160.034 61.6475C160.948 60.9827 162.049 60.6244 163.18 60.6242Z" fill="#3F3D56"/>
<path d="M281.32 82.1156L264.361 96.6684L237.781 119.468L234.188 122.551C233.859 122.831 233.589 123.172 233.394 123.557C233.199 123.942 233.082 124.361 233.051 124.791C233.004 125.415 233.136 126.04 233.432 126.591C233.545 126.799 233.68 126.995 233.835 127.173L235.762 129.414L238.696 132.82C238.75 132.88 238.801 132.936 238.859 132.994C239.445 133.579 240.231 133.922 241.059 133.954C241.888 133.986 242.698 133.704 243.327 133.165L273.467 107.315L290.462 92.734C291.121 92.166 291.527 91.3604 291.592 90.4937C291.657 89.6271 291.375 88.7701 290.808 88.1107L289.782 86.9204L285.95 82.4681C285.67 82.1409 285.327 81.8722 284.943 81.6774C284.558 81.4826 284.139 81.3655 283.708 81.3327C283.278 81.3 282.846 81.3523 282.436 81.4866C282.026 81.6209 281.647 81.8347 281.32 82.1155V82.1156Z" fill="#1F2729"/>
<path d="M294.244 69.8716C309.177 69.8716 321.282 57.7882 321.282 42.8826C321.282 27.9769 309.177 15.8936 294.244 15.8936C279.312 15.8936 267.207 27.9769 267.207 42.8826C267.207 57.7882 279.312 69.8716 294.244 69.8716Z" fill="#1F2729"/>
<path d="M296.231 147.69V209.722C296.232 210.591 296.578 211.424 297.194 212.039C297.81 212.654 298.644 212.999 299.515 213H306.972C307.842 212.999 308.677 212.654 309.293 212.039C309.908 211.424 310.255 210.591 310.255 209.722V147.69C310.255 146.821 309.908 145.987 309.293 145.373C308.677 144.758 307.842 144.413 306.972 144.412H299.515C298.644 144.413 297.81 144.758 297.194 145.373C296.578 145.987 296.232 146.821 296.231 147.69Z" fill="#2F2E41"/>
<path d="M280.474 147.69V209.722C280.474 210.153 280.559 210.579 280.724 210.977C280.889 211.374 281.131 211.736 281.436 212.04C281.741 212.344 282.103 212.586 282.501 212.751C282.9 212.915 283.327 213 283.758 213H291.215C292.085 212.999 292.92 212.654 293.536 212.039C294.151 211.424 294.498 210.591 294.498 209.722V147.69C294.498 146.821 294.151 145.987 293.536 145.373C292.92 144.758 292.085 144.413 291.215 144.412H283.758C283.327 144.412 282.9 144.497 282.501 144.661C282.103 144.826 281.741 145.067 281.436 145.372C281.131 145.676 280.889 146.038 280.724 146.435C280.559 146.833 280.474 147.259 280.474 147.69Z" fill="#2F2E41"/>
<path d="M283.501 156.188C280.695 156.185 277.926 155.552 275.399 154.335C272.872 153.118 270.652 151.349 268.903 149.158C267.155 146.968 265.923 144.413 265.299 141.682C264.675 138.951 264.675 136.116 265.299 133.385L273.734 96.4762C273.74 92.6586 274.8 88.9165 276.797 85.6608C278.794 82.4051 281.652 79.7619 285.056 78.0214C288.46 76.281 292.278 75.5107 296.092 75.7952C299.906 76.0796 303.567 77.4078 306.675 79.6339C309.36 81.5584 311.549 84.0927 313.061 87.0277C314.572 89.9627 315.363 93.2144 315.368 96.5145C315.38 96.848 316.556 131.173 317.049 147.034C317.083 148.12 316.901 149.201 316.515 150.216C316.129 151.231 315.545 152.159 314.798 152.949C314.051 153.738 313.155 154.372 312.162 154.814C311.169 155.257 310.098 155.499 309.01 155.527L284.103 156.178C283.902 156.184 283.701 156.188 283.501 156.188Z" fill="#2F2E41"/>
<path d="M271.411 54.8132L271.439 53.8046C269.56 53.7524 267.903 53.6347 266.657 52.7266C266.304 52.4545 266.014 52.1097 265.807 51.7157C265.599 51.3216 265.479 50.8876 265.454 50.443C265.432 50.1714 265.474 49.8984 265.575 49.6452C265.676 49.3921 265.834 49.1656 266.037 48.9834C266.863 48.2865 268.193 48.5121 269.163 48.9558L269.999 49.3384L268.396 37.6438L267.395 37.7807L268.758 47.7286C267.441 47.342 266.22 47.5084 265.384 48.2131C265.063 48.4929 264.812 48.8429 264.649 49.2359C264.486 49.6288 264.416 50.0541 264.445 50.4785C264.474 51.0758 264.634 51.6594 264.913 52.1885C265.193 52.7175 265.584 53.1792 266.061 53.5412C267.661 54.7083 269.741 54.7664 271.411 54.8132Z" fill="#2F2E41"/>
<path d="M279.621 38.6385H274.179V39.6471H279.621V38.6385Z" fill="#2F2E41"/>
<path d="M301.308 87.1551L302.238 109.46L303.688 144.412L303.885 149.137C303.901 149.568 304.002 149.991 304.184 150.383C304.365 150.774 304.622 151.125 304.941 151.416C305.402 151.84 305.976 152.123 306.593 152.233C306.826 152.274 307.063 152.289 307.3 152.279L310.255 152.158L314.752 151.971C314.833 151.966 314.908 151.961 314.989 151.951C315.813 151.855 316.57 151.452 317.108 150.823C317.647 150.193 317.928 149.384 317.894 148.557L316.252 108.925L315.323 86.5752C315.285 85.707 314.903 84.8892 314.262 84.3013C313.621 83.7133 312.772 83.4031 311.903 83.4385L310.331 83.5041L304.456 83.7461C304.025 83.7631 303.601 83.8649 303.21 84.0455C302.818 84.2261 302.466 84.4821 302.173 84.7988C301.881 85.1154 301.654 85.4866 301.506 85.8909C301.357 86.2953 301.29 86.7249 301.308 87.1551Z" fill="#1F2729"/>
<path d="M299.04 89.0411V106.187C299.041 107.041 299.375 107.861 299.972 108.472C300.57 109.084 301.383 109.438 302.238 109.46C302.266 109.464 302.295 109.466 302.324 109.465H314.449C314.644 109.464 314.838 109.446 315.03 109.409C315.466 109.333 315.882 109.168 316.252 108.925C316.706 108.626 317.079 108.219 317.337 107.742C317.595 107.264 317.731 106.73 317.732 106.187V89.0411C317.729 86.5678 316.744 84.1965 314.992 82.4476C313.24 80.6987 310.864 79.7148 308.386 79.7118C307.745 79.7103 307.104 79.7762 306.476 79.9085C304.376 80.349 302.491 81.4967 301.137 83.1594C299.783 84.822 299.043 86.8986 299.04 89.0411Z" fill="#2F2E41"/>
<path d="M263.615 96.197C263.74 96.6043 263.945 96.983 264.216 97.3115L271.896 106.676C272.033 106.849 272.19 107.005 272.365 107.14C272.952 107.617 273.686 107.877 274.443 107.876C275.199 107.876 275.933 107.614 276.518 107.135L289.81 96.2776C290.76 95.5015 291.547 94.5462 292.127 93.4663C292.707 92.3865 293.068 91.2032 293.19 89.984C293.311 88.7649 293.191 87.5337 292.836 86.3609C292.481 85.188 291.898 84.0964 291.121 83.1484C290.343 82.2004 289.386 81.4146 288.305 80.8358C287.223 80.257 286.037 79.8965 284.816 79.775C283.595 79.6535 282.361 79.7733 281.186 80.1276C280.011 80.4819 278.918 81.0637 277.968 81.8399L264.676 92.6972C264.173 93.1108 263.804 93.6639 263.615 94.2867C263.426 94.9096 263.426 95.5742 263.615 96.197Z" fill="#2F2E41"/>
<path d="M290.104 27.0132C285.6 28.8852 280.749 30.9561 275.757 30.3823C271.668 29.9122 267.738 27.5256 266.796 23.3081C265.896 19.278 267.757 15.0739 270.722 12.3743C274.077 9.32067 278.708 7.8433 283.128 7.22017C285.798 6.84369 288.765 6.81934 291.227 8.06701C293.198 9.06573 294.97 10.8715 295.274 13.1415L297.168 12.6295C295.83 10.3648 296.47 7.61994 297.951 5.58562C299.732 3.13962 302.721 2.12098 305.656 2.0359C311.627 1.86284 317.735 4.62836 322.543 7.97566C327.278 11.2842 331.175 15.6484 333.926 20.7222C337.012 26.4214 338.711 33.2365 337.673 39.7036C336.617 46.2857 332.351 52.5316 325.748 54.5129C324.499 54.8878 325.031 56.8465 326.289 56.4692C332.592 54.5778 337.248 49.1297 339.036 42.9166C341.091 35.7769 339.677 27.9576 336.525 21.356C333.73 15.5853 329.559 10.5878 324.377 6.80242C319.197 2.99107 312.484 -0.0747559 305.94 0.00138828C302.181 0.0451291 298.539 1.38268 296.264 4.47003C294.321 7.10592 293.697 10.7502 295.413 13.6534C295.884 14.4504 297.447 14.189 297.307 13.1414C296.594 7.82962 291.444 5.0989 286.485 4.98102C283.686 4.97032 280.901 5.38132 278.225 6.20013C275.749 6.87716 273.399 7.94937 271.266 9.37527C267.261 12.1426 264.444 16.5617 264.557 21.5382C264.669 26.5028 268.02 30.3163 272.664 31.7846C278.792 33.7223 285.007 31.3124 290.645 28.9695C290.899 28.8903 291.115 28.7173 291.246 28.4856C291.378 28.2539 291.417 27.9808 291.354 27.7217C291.281 27.4631 291.109 27.2436 290.875 27.1109C290.641 26.9783 290.364 26.9432 290.104 27.0132L290.104 27.0132Z" fill="#2F2E41"/>
<path d="M207.601 126.459C206.468 126.455 205.367 126.091 204.455 125.42C203.531 124.765 202.842 123.831 202.492 122.754C202.141 121.678 202.148 120.518 202.51 119.446L205.147 111.346C205.336 110.769 205.336 110.147 205.148 109.57C204.961 108.993 204.594 108.491 204.102 108.135L197.198 103.128C196.284 102.465 195.603 101.53 195.254 100.457C194.904 99.3834 194.904 98.2274 195.254 97.1542C195.603 96.081 196.284 95.1458 197.198 94.4826C198.113 93.8194 199.214 93.4622 200.345 93.4622H208.878C209.486 93.4633 210.078 93.2717 210.57 92.9151C211.061 92.5584 211.427 92.0551 211.614 91.4777L214.251 83.3775C214.6 82.3043 215.281 81.3691 216.195 80.7059C217.11 80.0426 218.211 79.6854 219.342 79.6854C220.472 79.6854 221.574 80.0426 222.488 80.7059C223.403 81.3691 224.083 82.3043 224.433 83.3775L227.069 91.4777C227.256 92.0551 227.622 92.5584 228.113 92.915C228.605 93.2717 229.198 93.4633 229.805 93.4622H238.338C239.469 93.4622 240.57 93.8195 241.485 94.4827C242.399 95.146 243.08 96.0812 243.429 97.1543C243.779 98.2274 243.779 99.3834 243.429 100.457C243.08 101.53 242.399 102.465 241.485 103.128L234.582 108.135C234.089 108.491 233.723 108.993 233.535 109.57C233.347 110.147 233.347 110.769 233.536 111.346L236.173 119.446C236.523 120.519 236.522 121.675 236.173 122.748C235.824 123.821 235.143 124.756 234.228 125.42C233.314 126.083 232.212 126.44 231.082 126.44C229.952 126.44 228.85 126.083 227.936 125.42L221.033 120.414C220.542 120.056 219.949 119.863 219.341 119.863C218.734 119.863 218.141 120.056 217.65 120.414L210.747 125.42C209.835 126.091 208.734 126.455 207.601 126.459ZM219.342 117.391C220.472 117.391 221.574 117.749 222.488 118.414L229.391 123.42C229.882 123.777 230.474 123.969 231.082 123.969C231.69 123.969 232.282 123.777 232.773 123.421C233.265 123.064 233.631 122.562 233.818 121.985C234.006 121.408 234.006 120.786 233.818 120.21L231.182 112.109C230.83 111.036 230.829 109.88 231.179 108.806C231.528 107.732 232.21 106.797 233.126 106.135L240.029 101.129C240.521 100.772 240.887 100.27 241.074 99.6928C241.262 99.116 241.262 98.4947 241.074 97.918C240.887 97.3412 240.521 96.8386 240.029 96.4821C239.538 96.1256 238.946 95.9336 238.338 95.9336H229.806C228.675 95.9357 227.572 95.5793 226.657 94.9158C225.742 94.2522 225.062 93.3158 224.715 92.2416L222.078 84.1413C221.89 83.5645 221.524 83.0618 221.033 82.7053C220.541 82.3488 219.949 82.1568 219.341 82.1568C218.734 82.1568 218.142 82.3488 217.65 82.7053C217.159 83.0618 216.793 83.5645 216.605 84.1413L213.968 92.2416C213.621 93.3158 212.941 94.2523 212.026 94.9158C211.111 95.5793 210.009 95.9357 208.878 95.9336H200.345C199.737 95.9336 199.145 96.1255 198.654 96.482C198.162 96.8384 197.796 97.341 197.609 97.9178C197.421 98.4946 197.421 99.1159 197.608 99.6927C197.796 100.269 198.162 100.772 198.654 101.129L205.557 106.135C206.473 106.797 207.155 107.732 207.505 108.806C207.854 109.88 207.853 111.036 207.502 112.109L204.864 120.21C204.677 120.786 204.677 121.408 204.864 121.985C205.052 122.561 205.418 123.064 205.91 123.42C206.401 123.777 206.993 123.969 207.601 123.969C208.208 123.969 208.8 123.777 209.292 123.42L216.195 118.414C217.109 117.749 218.211 117.391 219.342 117.391Z" fill="#3F3D56"/>
</g>
<defs>
<clipPath id="clip0_37_293">
<rect width="340" height="213" fill="white"/>
</clipPath>
</defs>
</svg>
